0
SECTION
2
HEADER
9
$INSUNITS
70
4
0
ENDSEC
0
SECTION
2
ENTITIES
0
POLYLINE
8
00_PANEL_OUTLINE
66
1
70
1
0
VERTEX
8
00_PANEL_OUTLINE
10
0.0000
20
0.0000
30
0.0
0
VERTEX
8
00_PANEL_OUTLINE
10
122.3409
20
0.0000
30
0.0
0
VERTEX
8
00_PANEL_OUTLINE
10
122.3409
20
63.0000
30
0.0
0
VERTEX
8
00_PANEL_OUTLINE
10
0.0000
20
63.0000
30
0.0
0
SEQEND
8
00_PANEL_OUTLINE
0
POLYLINE
8
01_GROOVE_NEUCHATEL
66
1
70
1
0
VERTEX
8
01_GROOVE_NEUCHATEL
10
68.4501
20
17.0724
30
0.0
0
VERTEX
8
01_GROOVE_NEUCHATEL
10
68.0668
20
17.1307
30
0.0
0
VERTEX
8
01_GROOVE_NEUCHATEL
10
67.6863
20
17.1979
30
0.0
0
VERTEX
8
01_GROOVE_NEUCHATEL
10
67.3085
20
17.2708
30
0.0
0
VERTEX
8
01_GROOVE_NEUCHATEL
10
66.9328
20
17.3486
30
0.0
0
VERTEX
8
01_GROOVE_NEUCHATEL
10
66.5590
20
17.4302
30
0.0
0
VERTEX
8
01_GROOVE_NEUCHATEL
10
66.1862
20
17.5144
30
0.0
0
VERTEX
8
01_GROOVE_NEUCHATEL
10
65.8138
20
17.6000
30
0.0
0
VERTEX
8
01_GROOVE_NEUCHATEL
10
65.4410
20
17.6856
30
0.0
0
VERTEX
8
01_GROOVE_NEUCHATEL
10
65.0672
20
17.7736
30
0.0
0
VERTEX
8
01_GROOVE_NEUCHATEL
10
64.6915
20
17.8603
30
0.0
0
VERTEX
8
01_GROOVE_NEUCHATEL
10
64.3137
20
17.9449
30
0.0
0
VERTEX
8
01_GROOVE_NEUCHATEL
10
63.9332
20
18.0268
30
0.0
0
VERTEX
8
01_GROOVE_NEUCHATEL
10
63.5499
20
18.1054
30
0.0
0
VERTEX
8
01_GROOVE_NEUCHATEL
10
63.1639
20
18.1777
30
0.0
0
VERTEX
8
01_GROOVE_NEUCHATEL
10
62.7753
20
18.2470
30
0.0
0
VERTEX
8
01_GROOVE_NEUCHATEL
10
62.3842
20
18.3130
30
0.0
0
VERTEX
8
01_GROOVE_NEUCHATEL
10
61.9911
20
18.3753
30
0.0
0
VERTEX
8
01_GROOVE_NEUCHATEL
10
61.5963
20
18.4339
30
0.0
0
VERTEX
8
01_GROOVE_NEUCHATEL
10
61.2000
20
18.4884
30
0.0
0
VERTEX
8
01_GROOVE_NEUCHATEL
10
60.8000
20
18.5361
30
0.0
0
VERTEX
8
01_GROOVE_NEUCHATEL
10
60.4000
20
18.5777
30
0.0
0
VERTEX
8
01_GROOVE_NEUCHATEL
10
60.0000
20
18.6163
30
0.0
0
VERTEX
8
01_GROOVE_NEUCHATEL
10
59.6000
20
18.6551
30
0.0
0
VERTEX
8
01_GROOVE_NEUCHATEL
10
59.2000
20
18.6915
30
0.0
0
VERTEX
8
01_GROOVE_NEUCHATEL
10
58.8000
20
18.7257
30
0.0
0
VERTEX
8
01_GROOVE_NEUCHATEL
10
58.4000
20
18.7579
30
0.0
0
VERTEX
8
01_GROOVE_NEUCHATEL
10
58.0000
20
18.7860
30
0.0
0
VERTEX
8
01_GROOVE_NEUCHATEL
10
57.6000
20
18.8140
30
0.0
0
VERTEX
8
01_GROOVE_NEUCHATEL
10
57.2000
20
18.8421
30
0.0
0
VERTEX
8
01_GROOVE_NEUCHATEL
10
56.8000
20
18.8706
30
0.0
0
VERTEX
8
01_GROOVE_NEUCHATEL
10
56.4000
20
18.8996
30
0.0
0
VERTEX
8
01_GROOVE_NEUCHATEL
10
56.0000
20
18.9291
30
0.0
0
VERTEX
8
01_GROOVE_NEUCHATEL
10
55.6000
20
18.9590
30
0.0
0
VERTEX
8
01_GROOVE_NEUCHATEL
10
55.2000
20
18.9862
30
0.0
0
VERTEX
8
01_GROOVE_NEUCHATEL
10
54.8000
20
19.0138
30
0.0
0
VERTEX
8
01_GROOVE_NEUCHATEL
10
54.4000
20
19.0448
30
0.0
0
VERTEX
8
01_GROOVE_NEUCHATEL
10
54.0000
20
19.0761
30
0.0
0
VERTEX
8
01_GROOVE_NEUCHATEL
10
53.6000
20
19.1073
30
0.0
0
VERTEX
8
01_GROOVE_NEUCHATEL
10
53.2000
20
19.1421
30
0.0
0
VERTEX
8
01_GROOVE_NEUCHATEL
10
52.8000
20
19.1781
30
0.0
0
VERTEX
8
01_GROOVE_NEUCHATEL
10
52.4000
20
19.2158
30
0.0
0
VERTEX
8
01_GROOVE_NEUCHATEL
10
52.0000
20
19.2592
30
0.0
0
VERTEX
8
01_GROOVE_NEUCHATEL
10
51.6000
20
19.3066
30
0.0
0
VERTEX
8
01_GROOVE_NEUCHATEL
10
51.2000
20
19.3623
30
0.0
0
VERTEX
8
01_GROOVE_NEUCHATEL
10
50.8000
20
19.4244
30
0.0
0
VERTEX
8
01_GROOVE_NEUCHATEL
10
50.4000
20
19.4934
30
0.0
0
VERTEX
8
01_GROOVE_NEUCHATEL
10
50.0000
20
19.5732
30
0.0
0
VERTEX
8
01_GROOVE_NEUCHATEL
10
49.6000
20
19.6584
30
0.0
0
VERTEX
8
01_GROOVE_NEUCHATEL
10
49.2000
20
19.7522
30
0.0
0
VERTEX
8
01_GROOVE_NEUCHATEL
10
48.8000
20
19.8571
30
0.0
0
VERTEX
8
01_GROOVE_NEUCHATEL
10
48.4000
20
19.9695
30
0.0
0
VERTEX
8
01_GROOVE_NEUCHATEL
10
48.0000
20
20.0880
30
0.0
0
VERTEX
8
01_GROOVE_NEUCHATEL
10
47.6000
20
20.2109
30
0.0
0
VERTEX
8
01_GROOVE_NEUCHATEL
10
47.2000
20
20.3367
30
0.0
0
VERTEX
8
01_GROOVE_NEUCHATEL
10
46.8000
20
20.4633
30
0.0
0
VERTEX
8
01_GROOVE_NEUCHATEL
10
46.4000
20
20.5891
30
0.0
0
VERTEX
8
01_GROOVE_NEUCHATEL
10
46.0000
20
20.7120
30
0.0
0
VERTEX
8
01_GROOVE_NEUCHATEL
10
45.6000
20
20.8305
30
0.0
0
VERTEX
8
01_GROOVE_NEUCHATEL
10
45.2000
20
20.9429
30
0.0
0
VERTEX
8
01_GROOVE_NEUCHATEL
10
44.8000
20
21.0478
30
0.0
0
VERTEX
8
01_GROOVE_NEUCHATEL
10
44.4000
20
21.1416
30
0.0
0
VERTEX
8
01_GROOVE_NEUCHATEL
10
44.0000
20
21.2268
30
0.0
0
VERTEX
8
01_GROOVE_NEUCHATEL
10
43.6000
20
21.3028
30
0.0
0
VERTEX
8
01_GROOVE_NEUCHATEL
10
43.2000
20
21.3667
30
0.0
0
VERTEX
8
01_GROOVE_NEUCHATEL
10
42.8000
20
21.4220
30
0.0
0
VERTEX
8
01_GROOVE_NEUCHATEL
10
42.4000
20
21.4687
30
0.0
0
VERTEX
8
01_GROOVE_NEUCHATEL
10
42.0000
20
21.5047
30
0.0
0
VERTEX
8
01_GROOVE_NEUCHATEL
10
41.6000
20
21.5342
30
0.0
0
VERTEX
8
01_GROOVE_NEUCHATEL
10
41.2000
20
21.5550
30
0.0
0
VERTEX
8
01_GROOVE_NEUCHATEL
10
40.8000
20
21.5715
30
0.0
0
VERTEX
8
01_GROOVE_NEUCHATEL
10
40.4000
20
21.5842
30
0.0
0
VERTEX
8
01_GROOVE_NEUCHATEL
10
40.0000
20
21.5911
30
0.0
0
VERTEX
8
01_GROOVE_NEUCHATEL
10
39.6000
20
21.5963
30
0.0
0
VERTEX
8
01_GROOVE_NEUCHATEL
10
39.2000
20
21.6000
30
0.0
0
VERTEX
8
01_GROOVE_NEUCHATEL
10
38.8000
20
21.6000
30
0.0
0
VERTEX
8
01_GROOVE_NEUCHATEL
10
38.4000
20
21.6000
30
0.0
0
VERTEX
8
01_GROOVE_NEUCHATEL
10
38.0000
20
21.6037
30
0.0
0
VERTEX
8
01_GROOVE_NEUCHATEL
10
37.6000
20
21.6089
30
0.0
0
VERTEX
8
01_GROOVE_NEUCHATEL
10
37.2000
20
21.6195
30
0.0
0
VERTEX
8
01_GROOVE_NEUCHATEL
10
36.8000
20
21.6336
30
0.0
0
VERTEX
8
01_GROOVE_NEUCHATEL
10
36.4000
20
21.6519
30
0.0
0
VERTEX
8
01_GROOVE_NEUCHATEL
10
36.0000
20
21.6748
30
0.0
0
VERTEX
8
01_GROOVE_NEUCHATEL
10
35.6000
20
21.7029
30
0.0
0
VERTEX
8
01_GROOVE_NEUCHATEL
10
35.2000
20
21.7364
30
0.0
0
VERTEX
8
01_GROOVE_NEUCHATEL
10
34.8000
20
21.7753
30
0.0
0
VERTEX
8
01_GROOVE_NEUCHATEL
10
34.4000
20
21.8229
30
0.0
0
VERTEX
8
01_GROOVE_NEUCHATEL
10
34.0000
20
21.8763
30
0.0
0
VERTEX
8
01_GROOVE_NEUCHATEL
10
33.6000
20
21.9385
30
0.0
0
VERTEX
8
01_GROOVE_NEUCHATEL
10
33.2000
20
22.0064
30
0.0
0
VERTEX
8
01_GROOVE_NEUCHATEL
10
32.8000
20
22.0791
30
0.0
0
VERTEX
8
01_GROOVE_NEUCHATEL
10
32.4000
20
22.1595
30
0.0
0
VERTEX
8
01_GROOVE_NEUCHATEL
10
32.0000
20
22.2444
30
0.0
0
VERTEX
8
01_GROOVE_NEUCHATEL
10
31.6000
20
22.3330
30
0.0
0
VERTEX
8
01_GROOVE_NEUCHATEL
10
31.2000
20
22.4247
30
0.0
0
VERTEX
8
01_GROOVE_NEUCHATEL
10
30.8000
20
22.5188
30
0.0
0
VERTEX
8
01_GROOVE_NEUCHATEL
10
30.4000
20
22.6146
30
0.0
0
VERTEX
8
01_GROOVE_NEUCHATEL
10
30.0000
20
22.7110
30
0.0
0
VERTEX
8
01_GROOVE_NEUCHATEL
10
29.6000
20
22.8072
30
0.0
0
VERTEX
8
01_GROOVE_NEUCHATEL
10
29.2000
20
22.9021
30
0.0
0
VERTEX
8
01_GROOVE_NEUCHATEL
10
28.8000
20
22.9943
30
0.0
0
VERTEX
8
01_GROOVE_NEUCHATEL
10
28.4000
20
23.0827
30
0.0
0
VERTEX
8
01_GROOVE_NEUCHATEL
10
28.0000
20
23.1633
30
0.0
0
VERTEX
8
01_GROOVE_NEUCHATEL
10
27.6000
20
23.2385
30
0.0
0
VERTEX
8
01_GROOVE_NEUCHATEL
10
27.2000
20
23.3046
30
0.0
0
VERTEX
8
01_GROOVE_NEUCHATEL
10
26.8000
20
23.3643
30
0.0
0
VERTEX
8
01_GROOVE_NEUCHATEL
10
26.4000
20
23.4167
30
0.0
0
VERTEX
8
01_GROOVE_NEUCHATEL
10
26.0000
20
23.4618
30
0.0
0
VERTEX
8
01_GROOVE_NEUCHATEL
10
25.6000
20
23.5033
30
0.0
0
VERTEX
8
01_GROOVE_NEUCHATEL
10
25.2000
20
23.5393
30
0.0
0
VERTEX
8
01_GROOVE_NEUCHATEL
10
24.8000
20
23.5708
30
0.0
0
VERTEX
8
01_GROOVE_NEUCHATEL
10
24.4000
20
23.5963
30
0.0
0
VERTEX
8
01_GROOVE_NEUCHATEL
10
24.0000
20
23.6203
30
0.0
0
VERTEX
8
01_GROOVE_NEUCHATEL
10
23.6000
20
23.6412
30
0.0
0
VERTEX
8
01_GROOVE_NEUCHATEL
10
23.2000
20
23.6631
30
0.0
0
VERTEX
8
01_GROOVE_NEUCHATEL
10
22.8000
20
23.6863
30
0.0
0
VERTEX
8
01_GROOVE_NEUCHATEL
10
22.4000
20
23.7085
30
0.0
0
VERTEX
8
01_GROOVE_NEUCHATEL
10
22.0000
20
23.7366
30
0.0
0
VERTEX
8
01_GROOVE_NEUCHATEL
10
21.6000
20
23.7716
30
0.0
0
VERTEX
8
01_GROOVE_NEUCHATEL
10
21.2000
20
23.8108
30
0.0
0
VERTEX
8
01_GROOVE_NEUCHATEL
10
20.8000
20
23.8543
30
0.0
0
VERTEX
8
01_GROOVE_NEUCHATEL
10
20.4000
20
23.9019
30
0.0
0
VERTEX
8
01_GROOVE_NEUCHATEL
10
20.0000
20
23.9571
30
0.0
0
VERTEX
8
01_GROOVE_NEUCHATEL
10
19.6000
20
24.0173
30
0.0
0
VERTEX
8
01_GROOVE_NEUCHATEL
10
19.2037
20
24.0863
30
0.0
0
VERTEX
8
01_GROOVE_NEUCHATEL
10
18.8089
20
24.1653
30
0.0
0
VERTEX
8
01_GROOVE_NEUCHATEL
10
18.4195
20
24.2557
30
0.0
0
VERTEX
8
01_GROOVE_NEUCHATEL
10
18.0374
20
24.3589
30
0.0
0
VERTEX
8
01_GROOVE_NEUCHATEL
10
17.6645
20
24.4764
30
0.0
0
VERTEX
8
01_GROOVE_NEUCHATEL
10
17.2995
20
24.6099
30
0.0
0
VERTEX
8
01_GROOVE_NEUCHATEL
10
16.9472
20
24.7605
30
0.0
0
VERTEX
8
01_GROOVE_NEUCHATEL
10
16.6061
20
24.9298
30
0.0
0
VERTEX
8
01_GROOVE_NEUCHATEL
10
16.2772
20
25.1186
30
0.0
0
VERTEX
8
01_GROOVE_NEUCHATEL
10
15.9608
20
25.3251
30
0.0
0
VERTEX
8
01_GROOVE_NEUCHATEL
10
15.6567
20
25.5496
30
0.0
0
VERTEX
8
01_GROOVE_NEUCHATEL
10
15.3639
20
25.7941
30
0.0
0
VERTEX
8
01_GROOVE_NEUCHATEL
10
15.0809
20
26.0579
30
0.0
0
VERTEX
8
01_GROOVE_NEUCHATEL
10
14.8054
20
26.3397
30
0.0
0
VERTEX
8
01_GROOVE_NEUCHATEL
10
14.5346
20
26.6342
30
0.0
0
VERTEX
8
01_GROOVE_NEUCHATEL
10
14.2654
20
26.9420
30
0.0
0
VERTEX
8
01_GROOVE_NEUCHATEL
10
13.9946
20
27.2571
30
0.0
0
VERTEX
8
01_GROOVE_NEUCHATEL
10
13.7191
20
27.5758
30
0.0
0
VERTEX
8
01_GROOVE_NEUCHATEL
10
13.4361
20
27.8915
30
0.0
0
VERTEX
8
01_GROOVE_NEUCHATEL
10
13.1433
20
28.2051
30
0.0
0
VERTEX
8
01_GROOVE_NEUCHATEL
10
12.8392
20
28.5134
30
0.0
0
VERTEX
8
01_GROOVE_NEUCHATEL
10
12.5228
20
28.8166
30
0.0
0
VERTEX
8
01_GROOVE_NEUCHATEL
10
12.1939
20
29.1090
30
0.0
0
VERTEX
8
01_GROOVE_NEUCHATEL
10
11.8528
20
29.3855
30
0.0
0
VERTEX
8
01_GROOVE_NEUCHATEL
10
11.5005
20
29.6478
30
0.0
0
VERTEX
8
01_GROOVE_NEUCHATEL
10
11.1355
20
29.8914
30
0.0
0
VERTEX
8
01_GROOVE_NEUCHATEL
10
10.7626
20
30.1200
30
0.0
0
VERTEX
8
01_GROOVE_NEUCHATEL
10
10.3805
20
30.3348
30
0.0
0
VERTEX
8
01_GROOVE_NEUCHATEL
10
9.9911
20
30.5340
30
0.0
0
VERTEX
8
01_GROOVE_NEUCHATEL
10
9.5963
20
30.7225
30
0.0
0
VERTEX
8
01_GROOVE_NEUCHATEL
10
9.2000
20
30.8989
30
0.0
0
VERTEX
8
01_GROOVE_NEUCHATEL
10
8.8000
20
31.0648
30
0.0
0
VERTEX
8
01_GROOVE_NEUCHATEL
10
8.4000
20
31.2255
30
0.0
0
VERTEX
8
01_GROOVE_NEUCHATEL
10
8.0000
20
31.3797
30
0.0
0
VERTEX
8
01_GROOVE_NEUCHATEL
10
7.6000
20
31.5288
30
0.0
0
VERTEX
8
01_GROOVE_NEUCHATEL
10
7.2000
20
31.6763
30
0.0
0
VERTEX
8
01_GROOVE_NEUCHATEL
10
6.8037
20
31.8232
30
0.0
0
VERTEX
8
01_GROOVE_NEUCHATEL
10
6.4126
20
31.9710
30
0.0
0
VERTEX
8
01_GROOVE_NEUCHATEL
10
6.0247
20
32.1214
30
0.0
0
VERTEX
8
01_GROOVE_NEUCHATEL
10
5.6405
20
32.2747
30
0.0
0
VERTEX
8
01_GROOVE_NEUCHATEL
10
5.2608
20
32.4313
30
0.0
0
VERTEX
8
01_GROOVE_NEUCHATEL
10
4.8899
20
32.5953
30
0.0
0
VERTEX
8
01_GROOVE_NEUCHATEL
10
4.5295
20
32.7671
30
0.0
0
VERTEX
8
01_GROOVE_NEUCHATEL
10
4.1816
20
32.9477
30
0.0
0
VERTEX
8
01_GROOVE_NEUCHATEL
10
3.8479
20
33.1356
30
0.0
0
VERTEX
8
01_GROOVE_NEUCHATEL
10
3.5305
20
33.3355
30
0.0
0
VERTEX
8
01_GROOVE_NEUCHATEL
10
3.2311
20
33.5459
30
0.0
0
VERTEX
8
01_GROOVE_NEUCHATEL
10
2.9513
20
33.7714
30
0.0
0
VERTEX
8
01_GROOVE_NEUCHATEL
10
2.6925
20
34.0128
30
0.0
0
VERTEX
8
01_GROOVE_NEUCHATEL
10
2.4558
20
34.2706
30
0.0
0
VERTEX
8
01_GROOVE_NEUCHATEL
10
2.2420
20
34.5451
30
0.0
0
VERTEX
8
01_GROOVE_NEUCHATEL
10
2.0514
20
34.8337
30
0.0
0
VERTEX
8
01_GROOVE_NEUCHATEL
10
1.8841
20
35.1366
30
0.0
0
VERTEX
8
01_GROOVE_NEUCHATEL
10
1.7395
20
35.4563
30
0.0
0
VERTEX
8
01_GROOVE_NEUCHATEL
10
1.6206
20
35.7888
30
0.0
0
VERTEX
8
01_GROOVE_NEUCHATEL
10
1.5274
20
36.1320
30
0.0
0
VERTEX
8
01_GROOVE_NEUCHATEL
10
1.4600
20
36.4863
30
0.0
0
VERTEX
8
01_GROOVE_NEUCHATEL
10
1.4150
20
36.8469
30
0.0
0
VERTEX
8
01_GROOVE_NEUCHATEL
10
1.3912
20
37.2151
30
0.0
0
VERTEX
8
01_GROOVE_NEUCHATEL
10
1.3912
20
37.5886
30
0.0
0
VERTEX
8
01_GROOVE_NEUCHATEL
10
1.4113
20
37.9657
30
0.0
0
VERTEX
8
01_GROOVE_NEUCHATEL
10
1.4511
20
38.3383
30
0.0
0
VERTEX
8
01_GROOVE_NEUCHATEL
10
1.5116
20
38.7048
30
0.0
0
VERTEX
8
01_GROOVE_NEUCHATEL
10
1.5958
20
39.0632
30
0.0
0
VERTEX
8
01_GROOVE_NEUCHATEL
10
1.7034
20
39.4140
30
0.0
0
VERTEX
8
01_GROOVE_NEUCHATEL
10
1.8340
20
39.7518
30
0.0
0
VERTEX
8
01_GROOVE_NEUCHATEL
10
1.9846
20
40.0745
30
0.0
0
VERTEX
8
01_GROOVE_NEUCHATEL
10
2.1556
20
40.3801
30
0.0
0
VERTEX
8
01_GROOVE_NEUCHATEL
10
2.3473
20
40.6665
30
0.0
0
VERTEX
8
01_GROOVE_NEUCHATEL
10
2.5596
20
40.9319
30
0.0
0
VERTEX
8
01_GROOVE_NEUCHATEL
10
2.7923
20
41.1747
30
0.0
0
VERTEX
8
01_GROOVE_NEUCHATEL
10
3.0449
20
41.3937
30
0.0
0
VERTEX
8
01_GROOVE_NEUCHATEL
10
3.3167
20
41.5879
30
0.0
0
VERTEX
8
01_GROOVE_NEUCHATEL
10
3.6069
20
41.7574
30
0.0
0
VERTEX
8
01_GROOVE_NEUCHATEL
10
3.9144
20
41.9024
30
0.0
0
VERTEX
8
01_GROOVE_NEUCHATEL
10
4.2380
20
42.0201
30
0.0
0
VERTEX
8
01_GROOVE_NEUCHATEL
10
4.5762
20
42.1144
30
0.0
0
VERTEX
8
01_GROOVE_NEUCHATEL
10
4.9276
20
42.1870
30
0.0
0
VERTEX
8
01_GROOVE_NEUCHATEL
10
5.2906
20
42.2397
30
0.0
0
VERTEX
8
01_GROOVE_NEUCHATEL
10
5.6607
20
42.2747
30
0.0
0
VERTEX
8
01_GROOVE_NEUCHATEL
10
6.0374
20
42.2968
30
0.0
0
VERTEX
8
01_GROOVE_NEUCHATEL
10
6.4195
20
42.3010
30
0.0
0
VERTEX
8
01_GROOVE_NEUCHATEL
10
6.8089
20
42.2922
30
0.0
0
VERTEX
8
01_GROOVE_NEUCHATEL
10
7.2037
20
42.2720
30
0.0
0
VERTEX
8
01_GROOVE_NEUCHATEL
10
7.6000
20
42.2424
30
0.0
0
VERTEX
8
01_GROOVE_NEUCHATEL
10
8.0000
20
42.2012
30
0.0
0
VERTEX
8
01_GROOVE_NEUCHATEL
10
8.4000
20
42.1549
30
0.0
0
VERTEX
8
01_GROOVE_NEUCHATEL
10
8.8000
20
42.0999
30
0.0
0
VERTEX
8
01_GROOVE_NEUCHATEL
10
9.2000
20
42.0353
30
0.0
0
VERTEX
8
01_GROOVE_NEUCHATEL
10
9.6000
20
41.9636
30
0.0
0
VERTEX
8
01_GROOVE_NEUCHATEL
10
10.0000
20
41.8851
30
0.0
0
VERTEX
8
01_GROOVE_NEUCHATEL
10
10.4000
20
41.7997
30
0.0
0
VERTEX
8
01_GROOVE_NEUCHATEL
10
10.8000
20
41.7081
30
0.0
0
VERTEX
8
01_GROOVE_NEUCHATEL
10
11.2000
20
41.6109
30
0.0
0
VERTEX
8
01_GROOVE_NEUCHATEL
10
11.6000
20
41.5090
30
0.0
0
VERTEX
8
01_GROOVE_NEUCHATEL
10
12.0000
20
41.4038
30
0.0
0
VERTEX
8
01_GROOVE_NEUCHATEL
10
12.4000
20
41.2967
30
0.0
0
VERTEX
8
01_GROOVE_NEUCHATEL
10
12.8000
20
41.1859
30
0.0
0
VERTEX
8
01_GROOVE_NEUCHATEL
10
13.2000
20
41.0755
30
0.0
0
VERTEX
8
01_GROOVE_NEUCHATEL
10
13.6000
20
40.9671
30
0.0
0
VERTEX
8
01_GROOVE_NEUCHATEL
10
14.0000
20
40.8650
30
0.0
0
VERTEX
8
01_GROOVE_NEUCHATEL
10
14.4000
20
40.7630
30
0.0
0
VERTEX
8
01_GROOVE_NEUCHATEL
10
14.8000
20
40.6649
30
0.0
0
VERTEX
8
01_GROOVE_NEUCHATEL
10
15.2000
20
40.5712
30
0.0
0
VERTEX
8
01_GROOVE_NEUCHATEL
10
15.6000
20
40.4819
30
0.0
0
VERTEX
8
01_GROOVE_NEUCHATEL
10
16.0000
20
40.3971
30
0.0
0
VERTEX
8
01_GROOVE_NEUCHATEL
10
16.4000
20
40.3190
30
0.0
0
VERTEX
8
01_GROOVE_NEUCHATEL
10
16.8000
20
40.2439
30
0.0
0
VERTEX
8
01_GROOVE_NEUCHATEL
10
17.2000
20
40.1717
30
0.0
0
VERTEX
8
01_GROOVE_NEUCHATEL
10
17.6000
20
40.1024
30
0.0
0
VERTEX
8
01_GROOVE_NEUCHATEL
10
18.0000
20
40.0387
30
0.0
0
VERTEX
8
01_GROOVE_NEUCHATEL
10
18.4000
20
39.9776
30
0.0
0
VERTEX
8
01_GROOVE_NEUCHATEL
10
18.8000
20
39.9185
30
0.0
0
VERTEX
8
01_GROOVE_NEUCHATEL
10
19.2000
20
39.8636
30
0.0
0
VERTEX
8
01_GROOVE_NEUCHATEL
10
19.6000
20
39.8063
30
0.0
0
VERTEX
8
01_GROOVE_NEUCHATEL
10
20.0000
20
39.7493
30
0.0
0
VERTEX
8
01_GROOVE_NEUCHATEL
10
20.4000
20
39.6927
30
0.0
0
VERTEX
8
01_GROOVE_NEUCHATEL
10
20.8000
20
39.6363
30
0.0
0
VERTEX
8
01_GROOVE_NEUCHATEL
10
21.2000
20
39.5797
30
0.0
0
VERTEX
8
01_GROOVE_NEUCHATEL
10
21.6000
20
39.5225
30
0.0
0
VERTEX
8
01_GROOVE_NEUCHATEL
10
22.0000
20
39.4645
30
0.0
0
VERTEX
8
01_GROOVE_NEUCHATEL
10
22.4000
20
39.4056
30
0.0
0
VERTEX
8
01_GROOVE_NEUCHATEL
10
22.8000
20
39.3484
30
0.0
0
VERTEX
8
01_GROOVE_NEUCHATEL
10
23.2000
20
39.2899
30
0.0
0
VERTEX
8
01_GROOVE_NEUCHATEL
10
23.6000
20
39.2347
30
0.0
0
VERTEX
8
01_GROOVE_NEUCHATEL
10
24.0000
20
39.1816
30
0.0
0
VERTEX
8
01_GROOVE_NEUCHATEL
10
24.4000
20
39.1348
30
0.0
0
VERTEX
8
01_GROOVE_NEUCHATEL
10
24.8000
20
39.0959
30
0.0
0
VERTEX
8
01_GROOVE_NEUCHATEL
10
25.2000
20
39.0641
30
0.0
0
VERTEX
8
01_GROOVE_NEUCHATEL
10
25.6000
20
39.0411
30
0.0
0
VERTEX
8
01_GROOVE_NEUCHATEL
10
26.0000
20
39.0280
30
0.0
0
VERTEX
8
01_GROOVE_NEUCHATEL
10
26.4000
20
39.0253
30
0.0
0
VERTEX
8
01_GROOVE_NEUCHATEL
10
26.8000
20
39.0333
30
0.0
0
VERTEX
8
01_GROOVE_NEUCHATEL
10
27.2000
20
39.0515
30
0.0
0
VERTEX
8
01_GROOVE_NEUCHATEL
10
27.6000
20
39.0789
30
0.0
0
VERTEX
8
01_GROOVE_NEUCHATEL
10
28.0000
20
39.1142
30
0.0
0
VERTEX
8
01_GROOVE_NEUCHATEL
10
28.4000
20
39.1555
30
0.0
0
VERTEX
8
01_GROOVE_NEUCHATEL
10
28.8000
20
39.2037
30
0.0
0
VERTEX
8
01_GROOVE_NEUCHATEL
10
29.2000
20
39.2534
30
0.0
0
VERTEX
8
01_GROOVE_NEUCHATEL
10
29.6000
20
39.3054
30
0.0
0
VERTEX
8
01_GROOVE_NEUCHATEL
10
30.0000
20
39.3547
30
0.0
0
VERTEX
8
01_GROOVE_NEUCHATEL
10
30.4000
20
39.4003
30
0.0
0
VERTEX
8
01_GROOVE_NEUCHATEL
10
30.8000
20
39.4415
30
0.0
0
VERTEX
8
01_GROOVE_NEUCHATEL
10
31.2000
20
39.4738
30
0.0
0
VERTEX
8
01_GROOVE_NEUCHATEL
10
31.6000
20
39.4996
30
0.0
0
VERTEX
8
01_GROOVE_NEUCHATEL
10
32.0000
20
39.5184
30
0.0
0
VERTEX
8
01_GROOVE_NEUCHATEL
10
32.4000
20
39.5303
30
0.0
0
VERTEX
8
01_GROOVE_NEUCHATEL
10
32.8000
20
39.5354
30
0.0
0
VERTEX
8
01_GROOVE_NEUCHATEL
10
33.2000
20
39.5342
30
0.0
0
VERTEX
8
01_GROOVE_NEUCHATEL
10
33.6000
20
39.5243
30
0.0
0
VERTEX
8
01_GROOVE_NEUCHATEL
10
34.0000
20
39.5099
30
0.0
0
VERTEX
8
01_GROOVE_NEUCHATEL
10
34.4000
20
39.4915
30
0.0
0
VERTEX
8
01_GROOVE_NEUCHATEL
10
34.8000
20
39.4672
30
0.0
0
VERTEX
8
01_GROOVE_NEUCHATEL
10
35.2000
20
39.4410
30
0.0
0
VERTEX
8
01_GROOVE_NEUCHATEL
10
35.6000
20
39.4138
30
0.0
0
VERTEX
8
01_GROOVE_NEUCHATEL
10
36.0000
20
39.3862
30
0.0
0
VERTEX
8
01_GROOVE_NEUCHATEL
10
36.4000
20
39.3590
30
0.0
0
VERTEX
8
01_GROOVE_NEUCHATEL
10
36.8000
20
39.3328
30
0.0
0
VERTEX
8
01_GROOVE_NEUCHATEL
10
37.2000
20
39.3085
30
0.0
0
VERTEX
8
01_GROOVE_NEUCHATEL
10
37.6000
20
39.2863
30
0.0
0
VERTEX
8
01_GROOVE_NEUCHATEL
10
38.0000
20
39.2668
30
0.0
0
VERTEX
8
01_GROOVE_NEUCHATEL
10
38.4000
20
39.2501
30
0.0
0
VERTEX
8
01_GROOVE_NEUCHATEL
10
38.8000
20
39.2324
30
0.0
0
VERTEX
8
01_GROOVE_NEUCHATEL
10
39.2000
20
39.2159
30
0.0
0
VERTEX
8
01_GROOVE_NEUCHATEL
10
39.6000
20
39.2000
30
0.0
0
VERTEX
8
01_GROOVE_NEUCHATEL
10
40.0000
20
39.1841
30
0.0
0
VERTEX
8
01_GROOVE_NEUCHATEL
10
40.4000
20
39.1676
30
0.0
0
VERTEX
8
01_GROOVE_NEUCHATEL
10
40.8000
20
39.1499
30
0.0
0
VERTEX
8
01_GROOVE_NEUCHATEL
10
41.2000
20
39.1294
30
0.0
0
VERTEX
8
01_GROOVE_NEUCHATEL
10
41.6000
20
39.1010
30
0.0
0
VERTEX
8
01_GROOVE_NEUCHATEL
10
42.0000
20
39.0669
30
0.0
0
VERTEX
8
01_GROOVE_NEUCHATEL
10
42.4000
20
39.0267
30
0.0
0
VERTEX
8
01_GROOVE_NEUCHATEL
10
42.8000
20
38.9802
30
0.0
0
VERTEX
8
01_GROOVE_NEUCHATEL
10
43.2000
20
38.9276
30
0.0
0
VERTEX
8
01_GROOVE_NEUCHATEL
10
43.6000
20
38.8693
30
0.0
0
VERTEX
8
01_GROOVE_NEUCHATEL
10
44.0000
20
38.8058
30
0.0
0
VERTEX
8
01_GROOVE_NEUCHATEL
10
44.4000
20
38.7380
30
0.0
0
VERTEX
8
01_GROOVE_NEUCHATEL
10
44.8000
20
38.6672
30
0.0
0
VERTEX
8
01_GROOVE_NEUCHATEL
10
45.2000
20
38.5946
30
0.0
0
VERTEX
8
01_GROOVE_NEUCHATEL
10
45.6000
20
38.5217
30
0.0
0
VERTEX
8
01_GROOVE_NEUCHATEL
10
46.0000
20
38.4501
30
0.0
0
VERTEX
8
01_GROOVE_NEUCHATEL
10
46.4000
20
38.3775
30
0.0
0
VERTEX
8
01_GROOVE_NEUCHATEL
10
46.8000
20
38.3076
30
0.0
0
VERTEX
8
01_GROOVE_NEUCHATEL
10
47.2000
20
38.2413
30
0.0
0
VERTEX
8
01_GROOVE_NEUCHATEL
10
47.6000
20
38.1789
30
0.0
0
VERTEX
8
01_GROOVE_NEUCHATEL
10
48.0000
20
38.1208
30
0.0
0
VERTEX
8
01_GROOVE_NEUCHATEL
10
48.4000
20
38.0706
30
0.0
0
VERTEX
8
01_GROOVE_NEUCHATEL
10
48.7963
20
38.0320
30
0.0
0
VERTEX
8
01_GROOVE_NEUCHATEL
10
49.1911
20
37.9991
30
0.0
0
VERTEX
8
01_GROOVE_NEUCHATEL
10
49.5842
20
37.9763
30
0.0
0
VERTEX
8
01_GROOVE_NEUCHATEL
10
49.9753
20
37.9653
30
0.0
0
VERTEX
8
01_GROOVE_NEUCHATEL
10
50.3639
20
37.9645
30
0.0
0
VERTEX
8
01_GROOVE_NEUCHATEL
10
50.7499
20
37.9749
30
0.0
0
VERTEX
8
01_GROOVE_NEUCHATEL
10
51.1332
20
38.0002
30
0.0
0
VERTEX
8
01_GROOVE_NEUCHATEL
10
51.5137
20
38.0399
30
0.0
0
VERTEX
8
01_GROOVE_NEUCHATEL
10
51.8915
20
38.0910
30
0.0
0
VERTEX
8
01_GROOVE_NEUCHATEL
10
52.2672
20
38.1534
30
0.0
0
VERTEX
8
01_GROOVE_NEUCHATEL
10
52.6410
20
38.2263
30
0.0
0
VERTEX
8
01_GROOVE_NEUCHATEL
10
53.0138
20
38.3081
30
0.0
0
VERTEX
8
01_GROOVE_NEUCHATEL
10
53.3862
20
38.3967
30
0.0
0
VERTEX
8
01_GROOVE_NEUCHATEL
10
53.7590
20
38.4895
30
0.0
0
VERTEX
8
01_GROOVE_NEUCHATEL
10
54.1328
20
38.5835
30
0.0
0
VERTEX
8
01_GROOVE_NEUCHATEL
10
54.5085
20
38.6758
30
0.0
0
VERTEX
8
01_GROOVE_NEUCHATEL
10
54.8863
20
38.7639
30
0.0
0
VERTEX
8
01_GROOVE_NEUCHATEL
10
55.2668
20
38.8456
30
0.0
0
VERTEX
8
01_GROOVE_NEUCHATEL
10
55.6501
20
38.9190
30
0.0
0
VERTEX
8
01_GROOVE_NEUCHATEL
10
56.0361
20
38.9823
30
0.0
0
VERTEX
8
01_GROOVE_NEUCHATEL
10
56.4247
20
39.0300
30
0.0
0
VERTEX
8
01_GROOVE_NEUCHATEL
10
56.8158
20
39.0645
30
0.0
0
VERTEX
8
01_GROOVE_NEUCHATEL
10
57.2089
20
39.0823
30
0.0
0
VERTEX
8
01_GROOVE_NEUCHATEL
10
57.6037
20
39.0823
30
0.0
0
VERTEX
8
01_GROOVE_NEUCHATEL
10
58.0000
20
39.0645
30
0.0
0
VERTEX
8
01_GROOVE_NEUCHATEL
10
58.4000
20
39.0262
30
0.0
0
VERTEX
8
01_GROOVE_NEUCHATEL
10
58.8000
20
38.9697
30
0.0
0
VERTEX
8
01_GROOVE_NEUCHATEL
10
59.2000
20
38.8944
30
0.0
0
VERTEX
8
01_GROOVE_NEUCHATEL
10
59.6000
20
38.8013
30
0.0
0
VERTEX
8
01_GROOVE_NEUCHATEL
10
60.0000
20
38.6942
30
0.0
0
VERTEX
8
01_GROOVE_NEUCHATEL
10
60.4000
20
38.5739
30
0.0
0
VERTEX
8
01_GROOVE_NEUCHATEL
10
60.8000
20
38.4418
30
0.0
0
VERTEX
8
01_GROOVE_NEUCHATEL
10
61.2000
20
38.2965
30
0.0
0
VERTEX
8
01_GROOVE_NEUCHATEL
10
61.6000
20
38.1430
30
0.0
0
VERTEX
8
01_GROOVE_NEUCHATEL
10
62.0000
20
37.9842
30
0.0
0
VERTEX
8
01_GROOVE_NEUCHATEL
10
62.3963
20
37.8197
30
0.0
0
VERTEX
8
01_GROOVE_NEUCHATEL
10
62.7911
20
37.6511
30
0.0
0
VERTEX
8
01_GROOVE_NEUCHATEL
10
63.1842
20
37.4797
30
0.0
0
VERTEX
8
01_GROOVE_NEUCHATEL
10
63.5753
20
37.3099
30
0.0
0
VERTEX
8
01_GROOVE_NEUCHATEL
10
63.9639
20
37.1391
30
0.0
0
VERTEX
8
01_GROOVE_NEUCHATEL
10
64.3499
20
36.9705
30
0.0
0
VERTEX
8
01_GROOVE_NEUCHATEL
10
64.7332
20
36.8040
30
0.0
0
VERTEX
8
01_GROOVE_NEUCHATEL
10
65.1137
20
36.6359
30
0.0
0
VERTEX
8
01_GROOVE_NEUCHATEL
10
65.4915
20
36.4684
30
0.0
0
VERTEX
8
01_GROOVE_NEUCHATEL
10
65.8672
20
36.3035
30
0.0
0
VERTEX
8
01_GROOVE_NEUCHATEL
10
66.2410
20
36.1369
30
0.0
0
VERTEX
8
01_GROOVE_NEUCHATEL
10
66.6138
20
35.9678
30
0.0
0
VERTEX
8
01_GROOVE_NEUCHATEL
10
66.9862
20
35.7999
30
0.0
0
VERTEX
8
01_GROOVE_NEUCHATEL
10
67.3590
20
35.6335
30
0.0
0
VERTEX
8
01_GROOVE_NEUCHATEL
10
67.7328
20
35.4672
30
0.0
0
VERTEX
8
01_GROOVE_NEUCHATEL
10
68.1085
20
35.3056
30
0.0
0
VERTEX
8
01_GROOVE_NEUCHATEL
10
68.4863
20
35.1465
30
0.0
0
VERTEX
8
01_GROOVE_NEUCHATEL
10
68.8668
20
34.9911
30
0.0
0
VERTEX
8
01_GROOVE_NEUCHATEL
10
69.2501
20
34.8414
30
0.0
0
VERTEX
8
01_GROOVE_NEUCHATEL
10
69.6361
20
34.6952
30
0.0
0
VERTEX
8
01_GROOVE_NEUCHATEL
10
70.0247
20
34.5560
30
0.0
0
VERTEX
8
01_GROOVE_NEUCHATEL
10
70.4158
20
34.4242
30
0.0
0
VERTEX
8
01_GROOVE_NEUCHATEL
10
70.8089
20
34.2988
30
0.0
0
VERTEX
8
01_GROOVE_NEUCHATEL
10
71.2037
20
34.1747
30
0.0
0
VERTEX
8
01_GROOVE_NEUCHATEL
10
71.6000
20
34.0538
30
0.0
0
VERTEX
8
01_GROOVE_NEUCHATEL
10
71.9963
20
33.9341
30
0.0
0
VERTEX
8
01_GROOVE_NEUCHATEL
10
72.3874
20
33.8126
30
0.0
0
VERTEX
8
01_GROOVE_NEUCHATEL
10
72.7716
20
33.6861
30
0.0
0
VERTEX
8
01_GROOVE_NEUCHATEL
10
73.1469
20
33.5492
30
0.0
0
VERTEX
8
01_GROOVE_NEUCHATEL
10
73.5108
20
33.4026
30
0.0
0
VERTEX
8
01_GROOVE_NEUCHATEL
10
73.8607
20
33.2410
30
0.0
0
VERTEX
8
01_GROOVE_NEUCHATEL
10
74.1976
20
33.0630
30
0.0
0
VERTEX
8
01_GROOVE_NEUCHATEL
10
74.5164
20
32.8699
30
0.0
0
VERTEX
8
01_GROOVE_NEUCHATEL
10
74.8149
20
32.6573
30
0.0
0
VERTEX
8
01_GROOVE_NEUCHATEL
10
75.0947
20
32.4248
30
0.0
0
VERTEX
8
01_GROOVE_NEUCHATEL
10
75.3560
20
32.1786
30
0.0
0
VERTEX
8
01_GROOVE_NEUCHATEL
10
75.5996
20
31.9133
30
0.0
0
VERTEX
8
01_GROOVE_NEUCHATEL
10
75.8273
20
31.6339
30
0.0
0
VERTEX
8
01_GROOVE_NEUCHATEL
10
76.0381
20
31.3396
30
0.0
0
VERTEX
8
01_GROOVE_NEUCHATEL
10
76.2380
20
31.0326
30
0.0
0
VERTEX
8
01_GROOVE_NEUCHATEL
10
76.4307
20
30.7188
30
0.0
0
VERTEX
8
01_GROOVE_NEUCHATEL
10
76.6206
20
30.4007
30
0.0
0
VERTEX
8
01_GROOVE_NEUCHATEL
10
76.8117
20
30.0775
30
0.0
0
VERTEX
8
01_GROOVE_NEUCHATEL
10
77.0045
20
29.7513
30
0.0
0
VERTEX
8
01_GROOVE_NEUCHATEL
10
77.2012
20
29.4268
30
0.0
0
VERTEX
8
01_GROOVE_NEUCHATEL
10
77.4029
20
29.1017
30
0.0
0
VERTEX
8
01_GROOVE_NEUCHATEL
10
77.6100
20
28.7770
30
0.0
0
VERTEX
8
01_GROOVE_NEUCHATEL
10
77.8216
20
28.4554
30
0.0
0
VERTEX
8
01_GROOVE_NEUCHATEL
10
78.0358
20
28.1357
30
0.0
0
VERTEX
8
01_GROOVE_NEUCHATEL
10
78.2501
20
27.8138
30
0.0
0
VERTEX
8
01_GROOVE_NEUCHATEL
10
78.4638
20
27.4915
30
0.0
0
VERTEX
8
01_GROOVE_NEUCHATEL
10
78.6726
20
27.1670
30
0.0
0
VERTEX
8
01_GROOVE_NEUCHATEL
10
78.8725
20
26.8385
30
0.0
0
VERTEX
8
01_GROOVE_NEUCHATEL
10
79.0563
20
26.5046
30
0.0
0
VERTEX
8
01_GROOVE_NEUCHATEL
10
79.2232
20
26.1643
30
0.0
0
VERTEX
8
01_GROOVE_NEUCHATEL
10
79.3710
20
25.8167
30
0.0
0
VERTEX
8
01_GROOVE_NEUCHATEL
10
79.4953
20
25.4618
30
0.0
0
VERTEX
8
01_GROOVE_NEUCHATEL
10
79.5954
20
25.0996
30
0.0
0
VERTEX
8
01_GROOVE_NEUCHATEL
10
79.6733
20
24.7304
30
0.0
0
VERTEX
8
01_GROOVE_NEUCHATEL
10
79.7271
20
24.3550
30
0.0
0
VERTEX
8
01_GROOVE_NEUCHATEL
10
79.7585
20
23.9715
30
0.0
0
VERTEX
8
01_GROOVE_NEUCHATEL
10
79.7700
20
23.5842
30
0.0
0
VERTEX
8
01_GROOVE_NEUCHATEL
10
79.7602
20
23.1911
30
0.0
0
VERTEX
8
01_GROOVE_NEUCHATEL
10
79.7332
20
22.7963
30
0.0
0
VERTEX
8
01_GROOVE_NEUCHATEL
10
79.6902
20
22.4000
30
0.0
0
VERTEX
8
01_GROOVE_NEUCHATEL
10
79.6298
20
22.0000
30
0.0
0
VERTEX
8
01_GROOVE_NEUCHATEL
10
79.5527
20
21.6037
30
0.0
0
VERTEX
8
01_GROOVE_NEUCHATEL
10
79.4593
20
21.2126
30
0.0
0
VERTEX
8
01_GROOVE_NEUCHATEL
10
79.3522
20
20.8284
30
0.0
0
VERTEX
8
01_GROOVE_NEUCHATEL
10
79.2302
20
20.4494
30
0.0
0
VERTEX
8
01_GROOVE_NEUCHATEL
10
79.0917
20
20.0803
30
0.0
0
VERTEX
8
01_GROOVE_NEUCHATEL
10
78.9355
20
19.7235
30
0.0
0
VERTEX
8
01_GROOVE_NEUCHATEL
10
78.7603
20
19.3814
30
0.0
0
VERTEX
8
01_GROOVE_NEUCHATEL
10
78.5650
20
19.0564
30
0.0
0
VERTEX
8
01_GROOVE_NEUCHATEL
10
78.3489
20
18.7508
30
0.0
0
VERTEX
8
01_GROOVE_NEUCHATEL
10
78.1114
20
18.4669
30
0.0
0
VERTEX
8
01_GROOVE_NEUCHATEL
10
77.8527
20
18.2063
30
0.0
0
VERTEX
8
01_GROOVE_NEUCHATEL
10
77.5733
20
17.9704
30
0.0
0
VERTEX
8
01_GROOVE_NEUCHATEL
10
77.2768
20
17.7599
30
0.0
0
VERTEX
8
01_GROOVE_NEUCHATEL
10
76.9611
20
17.5748
30
0.0
0
VERTEX
8
01_GROOVE_NEUCHATEL
10
76.6282
20
17.4147
30
0.0
0
VERTEX
8
01_GROOVE_NEUCHATEL
10
76.2801
20
17.2786
30
0.0
0
VERTEX
8
01_GROOVE_NEUCHATEL
10
75.9215
20
17.1651
30
0.0
0
VERTEX
8
01_GROOVE_NEUCHATEL
10
75.5513
20
17.0721
30
0.0
0
VERTEX
8
01_GROOVE_NEUCHATEL
10
75.1715
20
16.9977
30
0.0
0
VERTEX
8
01_GROOVE_NEUCHATEL
10
74.7842
20
16.9395
30
0.0
0
VERTEX
8
01_GROOVE_NEUCHATEL
10
74.3911
20
16.8952
30
0.0
0
VERTEX
8
01_GROOVE_NEUCHATEL
10
73.9963
20
16.8627
30
0.0
0
VERTEX
8
01_GROOVE_NEUCHATEL
10
73.6000
20
16.8398
30
0.0
0
VERTEX
8
01_GROOVE_NEUCHATEL
10
73.2000
20
16.8247
30
0.0
0
VERTEX
8
01_GROOVE_NEUCHATEL
10
72.8000
20
16.8195
30
0.0
0
VERTEX
8
01_GROOVE_NEUCHATEL
10
72.4000
20
16.8178
30
0.0
0
VERTEX
8
01_GROOVE_NEUCHATEL
10
72.0000
20
16.8195
30
0.0
0
VERTEX
8
01_GROOVE_NEUCHATEL
10
71.6000
20
16.8247
30
0.0
0
VERTEX
8
01_GROOVE_NEUCHATEL
10
71.2000
20
16.8361
30
0.0
0
VERTEX
8
01_GROOVE_NEUCHATEL
10
70.8000
20
16.8501
30
0.0
0
VERTEX
8
01_GROOVE_NEUCHATEL
10
70.4037
20
16.8706
30
0.0
0
VERTEX
8
01_GROOVE_NEUCHATEL
10
70.0089
20
16.8990
30
0.0
0
VERTEX
8
01_GROOVE_NEUCHATEL
10
69.6158
20
16.9331
30
0.0
0
VERTEX
8
01_GROOVE_NEUCHATEL
10
69.2247
20
16.9733
30
0.0
0
VERTEX
8
01_GROOVE_NEUCHATEL
10
68.8361
20
17.0198
30
0.0
0
SEQEND
8
01_GROOVE_NEUCHATEL
0
POLYLINE
8
01_GROOVE_BIELERSEE
66
1
70
1
0
VERTEX
8
01_GROOVE_BIELERSEE
10
97.2501
20
14.0055
30
0.0
0
VERTEX
8
01_GROOVE_BIELERSEE
10
96.8668
20
14.1034
30
0.0
0
VERTEX
8
01_GROOVE_BIELERSEE
10
96.4863
20
14.2121
30
0.0
0
VERTEX
8
01_GROOVE_BIELERSEE
10
96.1085
20
14.3308
30
0.0
0
VERTEX
8
01_GROOVE_BIELERSEE
10
95.7328
20
14.4615
30
0.0
0
VERTEX
8
01_GROOVE_BIELERSEE
10
95.3590
20
14.6037
30
0.0
0
VERTEX
8
01_GROOVE_BIELERSEE
10
94.9862
20
14.7530
30
0.0
0
VERTEX
8
01_GROOVE_BIELERSEE
10
94.6138
20
14.9115
30
0.0
0
VERTEX
8
01_GROOVE_BIELERSEE
10
94.2410
20
15.0784
30
0.0
0
VERTEX
8
01_GROOVE_BIELERSEE
10
93.8672
20
15.2535
30
0.0
0
VERTEX
8
01_GROOVE_BIELERSEE
10
93.4915
20
15.4330
30
0.0
0
VERTEX
8
01_GROOVE_BIELERSEE
10
93.1137
20
15.6199
30
0.0
0
VERTEX
8
01_GROOVE_BIELERSEE
10
92.7332
20
15.8107
30
0.0
0
VERTEX
8
01_GROOVE_BIELERSEE
10
92.3499
20
16.0086
30
0.0
0
VERTEX
8
01_GROOVE_BIELERSEE
10
91.9676
20
16.2116
30
0.0
0
VERTEX
8
01_GROOVE_BIELERSEE
10
91.5879
20
16.4238
30
0.0
0
VERTEX
8
01_GROOVE_BIELERSEE
10
91.2126
20
16.6458
30
0.0
0
VERTEX
8
01_GROOVE_BIELERSEE
10
90.8442
20
16.8754
30
0.0
0
VERTEX
8
01_GROOVE_BIELERSEE
10
90.4855
20
17.1166
30
0.0
0
VERTEX
8
01_GROOVE_BIELERSEE
10
90.1393
20
17.3695
30
0.0
0
VERTEX
8
01_GROOVE_BIELERSEE
10
89.8061
20
17.6317
30
0.0
0
VERTEX
8
01_GROOVE_BIELERSEE
10
89.4925
20
17.9040
30
0.0
0
VERTEX
8
01_GROOVE_BIELERSEE
10
89.2009
20
18.1870
30
0.0
0
VERTEX
8
01_GROOVE_BIELERSEE
10
88.9300
20
18.4838
30
0.0
0
VERTEX
8
01_GROOVE_BIELERSEE
10
88.6801
20
18.7900
30
0.0
0
VERTEX
8
01_GROOVE_BIELERSEE
10
88.4505
20
19.1035
30
0.0
0
VERTEX
8
01_GROOVE_BIELERSEE
10
88.2396
20
19.4193
30
0.0
0
VERTEX
8
01_GROOVE_BIELERSEE
10
88.0445
20
19.7417
30
0.0
0
VERTEX
8
01_GROOVE_BIELERSEE
10
87.8616
20
20.0650
30
0.0
0
VERTEX
8
01_GROOVE_BIELERSEE
10
87.6863
20
20.3831
30
0.0
0
VERTEX
8
01_GROOVE_BIELERSEE
10
87.5137
20
20.6934
30
0.0
0
VERTEX
8
01_GROOVE_BIELERSEE
10
87.3384
20
20.9992
30
0.0
0
VERTEX
8
01_GROOVE_BIELERSEE
10
87.1555
20
21.2917
30
0.0
0
VERTEX
8
01_GROOVE_BIELERSEE
10
86.9604
20
21.5684
30
0.0
0
VERTEX
8
01_GROOVE_BIELERSEE
10
86.7495
20
21.8273
30
0.0
0
VERTEX
8
01_GROOVE_BIELERSEE
10
86.5199
20
22.0731
30
0.0
0
VERTEX
8
01_GROOVE_BIELERSEE
10
86.2700
20
22.2991
30
0.0
0
VERTEX
8
01_GROOVE_BIELERSEE
10
85.9991
20
22.5116
30
0.0
0
VERTEX
8
01_GROOVE_BIELERSEE
10
85.7075
20
22.7090
30
0.0
0
VERTEX
8
01_GROOVE_BIELERSEE
10
85.3939
20
22.8906
30
0.0
0
VERTEX
8
01_GROOVE_BIELERSEE
10
85.0607
20
23.0583
30
0.0
0
VERTEX
8
01_GROOVE_BIELERSEE
10
84.7108
20
23.2145
30
0.0
0
VERTEX
8
01_GROOVE_BIELERSEE
10
84.3469
20
23.3610
30
0.0
0
VERTEX
8
01_GROOVE_BIELERSEE
10
83.9716
20
23.4997
30
0.0
0
VERTEX
8
01_GROOVE_BIELERSEE
10
83.5874
20
23.6318
30
0.0
0
VERTEX
8
01_GROOVE_BIELERSEE
10
83.2000
20
23.7620
30
0.0
0
VERTEX
8
01_GROOVE_BIELERSEE
10
82.8126
20
23.8918
30
0.0
0
VERTEX
8
01_GROOVE_BIELERSEE
10
82.4284
20
24.0229
30
0.0
0
VERTEX
8
01_GROOVE_BIELERSEE
10
82.0531
20
24.1567
30
0.0
0
VERTEX
8
01_GROOVE_BIELERSEE
10
81.6892
20
24.2974
30
0.0
0
VERTEX
8
01_GROOVE_BIELERSEE
10
81.3393
20
24.4459
30
0.0
0
VERTEX
8
01_GROOVE_BIELERSEE
10
81.0061
20
24.6033
30
0.0
0
VERTEX
8
01_GROOVE_BIELERSEE
10
80.6925
20
24.7686
30
0.0
0
VERTEX
8
01_GROOVE_BIELERSEE
10
80.4009
20
24.9472
30
0.0
0
VERTEX
8
01_GROOVE_BIELERSEE
10
80.1337
20
25.1407
30
0.0
0
VERTEX
8
01_GROOVE_BIELERSEE
10
79.8927
20
25.3511
30
0.0
0
VERTEX
8
01_GROOVE_BIELERSEE
10
79.6826
20
25.5732
30
0.0
0
VERTEX
8
01_GROOVE_BIELERSEE
10
79.5053
20
25.8141
30
0.0
0
VERTEX
8
01_GROOVE_BIELERSEE
10
79.3621
20
26.0737
30
0.0
0
VERTEX
8
01_GROOVE_BIELERSEE
10
79.2540
20
26.3478
30
0.0
0
VERTEX
8
01_GROOVE_BIELERSEE
10
79.1817
20
26.6311
30
0.0
0
VERTEX
8
01_GROOVE_BIELERSEE
10
79.1454
20
26.9239
30
0.0
0
VERTEX
8
01_GROOVE_BIELERSEE
10
79.1454
20
27.2193
30
0.0
0
VERTEX
8
01_GROOVE_BIELERSEE
10
79.1817
20
27.5137
30
0.0
0
VERTEX
8
01_GROOVE_BIELERSEE
10
79.2540
20
27.8054
30
0.0
0
VERTEX
8
01_GROOVE_BIELERSEE
10
79.3621
20
28.0932
30
0.0
0
VERTEX
8
01_GROOVE_BIELERSEE
10
79.5053
20
28.3738
30
0.0
0
VERTEX
8
01_GROOVE_BIELERSEE
10
79.6789
20
28.6450
30
0.0
0
VERTEX
8
01_GROOVE_BIELERSEE
10
79.8801
20
28.9056
30
0.0
0
VERTEX
8
01_GROOVE_BIELERSEE
10
80.1091
20
29.1517
30
0.0
0
VERTEX
8
01_GROOVE_BIELERSEE
10
80.3604
20
29.3806
30
0.0
0
VERTEX
8
01_GROOVE_BIELERSEE
10
80.6316
20
29.5935
30
0.0
0
VERTEX
8
01_GROOVE_BIELERSEE
10
80.9199
20
29.7919
30
0.0
0
VERTEX
8
01_GROOVE_BIELERSEE
10
81.2224
20
29.9776
30
0.0
0
VERTEX
8
01_GROOVE_BIELERSEE
10
81.5360
20
30.1521
30
0.0
0
VERTEX
8
01_GROOVE_BIELERSEE
10
81.8583
20
30.3166
30
0.0
0
VERTEX
8
01_GROOVE_BIELERSEE
10
82.1871
20
30.4719
30
0.0
0
VERTEX
8
01_GROOVE_BIELERSEE
10
82.5208
20
30.6183
30
0.0
0
VERTEX
8
01_GROOVE_BIELERSEE
10
82.8586
20
30.7558
30
0.0
0
VERTEX
8
01_GROOVE_BIELERSEE
10
83.2000
20
30.8836
30
0.0
0
VERTEX
8
01_GROOVE_BIELERSEE
10
83.5451
20
31.0010
30
0.0
0
VERTEX
8
01_GROOVE_BIELERSEE
10
83.8918
20
31.1097
30
0.0
0
VERTEX
8
01_GROOVE_BIELERSEE
10
84.2413
20
31.2056
30
0.0
0
VERTEX
8
01_GROOVE_BIELERSEE
10
84.5948
20
31.2883
30
0.0
0
VERTEX
8
01_GROOVE_BIELERSEE
10
84.9532
20
31.3569
30
0.0
0
VERTEX
8
01_GROOVE_BIELERSEE
10
85.3169
20
31.4134
30
0.0
0
VERTEX
8
01_GROOVE_BIELERSEE
10
85.6862
20
31.4538
30
0.0
0
VERTEX
8
01_GROOVE_BIELERSEE
10
86.0608
20
31.4772
30
0.0
0
VERTEX
8
01_GROOVE_BIELERSEE
10
86.4368
20
31.4824
30
0.0
0
VERTEX
8
01_GROOVE_BIELERSEE
10
86.8120
20
31.4684
30
0.0
0
VERTEX
8
01_GROOVE_BIELERSEE
10
87.1842
20
31.4313
30
0.0
0
VERTEX
8
01_GROOVE_BIELERSEE
10
87.5544
20
31.3706
30
0.0
0
VERTEX
8
01_GROOVE_BIELERSEE
10
87.9234
20
31.2892
30
0.0
0
VERTEX
8
01_GROOVE_BIELERSEE
10
88.2891
20
31.1873
30
0.0
0
VERTEX
8
01_GROOVE_BIELERSEE
10
88.6470
20
31.0685
30
0.0
0
VERTEX
8
01_GROOVE_BIELERSEE
10
88.9968
20
30.9332
30
0.0
0
VERTEX
8
01_GROOVE_BIELERSEE
10
89.3384
20
30.7790
30
0.0
0
VERTEX
8
01_GROOVE_BIELERSEE
10
89.6724
20
30.6105
30
0.0
0
VERTEX
8
01_GROOVE_BIELERSEE
10
89.9998
20
30.4267
30
0.0
0
VERTEX
8
01_GROOVE_BIELERSEE
10
90.3220
20
30.2298
30
0.0
0
VERTEX
8
01_GROOVE_BIELERSEE
10
90.6410
20
30.0256
30
0.0
0
VERTEX
8
01_GROOVE_BIELERSEE
10
90.9590
20
29.8138
30
0.0
0
VERTEX
8
01_GROOVE_BIELERSEE
10
91.2780
20
29.6001
30
0.0
0
VERTEX
8
01_GROOVE_BIELERSEE
10
91.6002
20
29.3837
30
0.0
0
VERTEX
8
01_GROOVE_BIELERSEE
10
91.9276
20
29.1692
30
0.0
0
VERTEX
8
01_GROOVE_BIELERSEE
10
92.2616
20
28.9585
30
0.0
0
VERTEX
8
01_GROOVE_BIELERSEE
10
92.6032
20
28.7528
30
0.0
0
VERTEX
8
01_GROOVE_BIELERSEE
10
92.9530
20
28.5532
30
0.0
0
VERTEX
8
01_GROOVE_BIELERSEE
10
93.3109
20
28.3604
30
0.0
0
VERTEX
8
01_GROOVE_BIELERSEE
10
93.6766
20
28.1778
30
0.0
0
VERTEX
8
01_GROOVE_BIELERSEE
10
94.0494
20
28.0029
30
0.0
0
VERTEX
8
01_GROOVE_BIELERSEE
10
94.4284
20
27.8393
30
0.0
0
VERTEX
8
01_GROOVE_BIELERSEE
10
94.8126
20
27.6875
30
0.0
0
VERTEX
8
01_GROOVE_BIELERSEE
10
95.2037
20
27.5442
30
0.0
0
VERTEX
8
01_GROOVE_BIELERSEE
10
95.6000
20
27.4125
30
0.0
0
VERTEX
8
01_GROOVE_BIELERSEE
10
96.0000
20
27.2925
30
0.0
0
VERTEX
8
01_GROOVE_BIELERSEE
10
96.4000
20
27.1843
30
0.0
0
VERTEX
8
01_GROOVE_BIELERSEE
10
96.8000
20
27.0813
30
0.0
0
VERTEX
8
01_GROOVE_BIELERSEE
10
97.2000
20
26.9860
30
0.0
0
VERTEX
8
01_GROOVE_BIELERSEE
10
97.6000
20
26.8981
30
0.0
0
VERTEX
8
01_GROOVE_BIELERSEE
10
98.0000
20
26.8128
30
0.0
0
VERTEX
8
01_GROOVE_BIELERSEE
10
98.4000
20
26.7340
30
0.0
0
VERTEX
8
01_GROOVE_BIELERSEE
10
98.8000
20
26.6569
30
0.0
0
VERTEX
8
01_GROOVE_BIELERSEE
10
99.2000
20
26.5794
30
0.0
0
VERTEX
8
01_GROOVE_BIELERSEE
10
99.6000
20
26.5020
30
0.0
0
VERTEX
8
01_GROOVE_BIELERSEE
10
100.0000
20
26.4208
30
0.0
0
VERTEX
8
01_GROOVE_BIELERSEE
10
100.4000
20
26.3383
30
0.0
0
VERTEX
8
01_GROOVE_BIELERSEE
10
100.8000
20
26.2514
30
0.0
0
VERTEX
8
01_GROOVE_BIELERSEE
10
101.2000
20
26.1600
30
0.0
0
VERTEX
8
01_GROOVE_BIELERSEE
10
101.6000
20
26.0640
30
0.0
0
VERTEX
8
01_GROOVE_BIELERSEE
10
102.0000
20
25.9610
30
0.0
0
VERTEX
8
01_GROOVE_BIELERSEE
10
102.4000
20
25.8546
30
0.0
0
VERTEX
8
01_GROOVE_BIELERSEE
10
102.8000
20
25.7423
30
0.0
0
VERTEX
8
01_GROOVE_BIELERSEE
10
103.2000
20
25.6274
30
0.0
0
VERTEX
8
01_GROOVE_BIELERSEE
10
103.6000
20
25.5105
30
0.0
0
VERTEX
8
01_GROOVE_BIELERSEE
10
104.0000
20
25.3887
30
0.0
0
VERTEX
8
01_GROOVE_BIELERSEE
10
104.4000
20
25.2649
30
0.0
0
VERTEX
8
01_GROOVE_BIELERSEE
10
104.8000
20
25.1394
30
0.0
0
VERTEX
8
01_GROOVE_BIELERSEE
10
105.2000
20
25.0153
30
0.0
0
VERTEX
8
01_GROOVE_BIELERSEE
10
105.6000
20
24.8899
30
0.0
0
VERTEX
8
01_GROOVE_BIELERSEE
10
106.0000
20
24.7640
30
0.0
0
VERTEX
8
01_GROOVE_BIELERSEE
10
106.4000
20
24.6390
30
0.0
0
VERTEX
8
01_GROOVE_BIELERSEE
10
106.8000
20
24.5187
30
0.0
0
VERTEX
8
01_GROOVE_BIELERSEE
10
107.2000
20
24.4012
30
0.0
0
VERTEX
8
01_GROOVE_BIELERSEE
10
107.6000
20
24.2883
30
0.0
0
VERTEX
8
01_GROOVE_BIELERSEE
10
108.0000
20
24.1804
30
0.0
0
VERTEX
8
01_GROOVE_BIELERSEE
10
108.4000
20
24.0779
30
0.0
0
VERTEX
8
01_GROOVE_BIELERSEE
10
108.8000
20
23.9818
30
0.0
0
VERTEX
8
01_GROOVE_BIELERSEE
10
109.2000
20
23.8916
30
0.0
0
VERTEX
8
01_GROOVE_BIELERSEE
10
109.6000
20
23.8065
30
0.0
0
VERTEX
8
01_GROOVE_BIELERSEE
10
110.0000
20
23.7263
30
0.0
0
VERTEX
8
01_GROOVE_BIELERSEE
10
110.4000
20
23.6504
30
0.0
0
VERTEX
8
01_GROOVE_BIELERSEE
10
110.8000
20
23.5780
30
0.0
0
VERTEX
8
01_GROOVE_BIELERSEE
10
111.2000
20
23.5111
30
0.0
0
VERTEX
8
01_GROOVE_BIELERSEE
10
111.6000
20
23.4453
30
0.0
0
VERTEX
8
01_GROOVE_BIELERSEE
10
112.0000
20
23.3832
30
0.0
0
VERTEX
8
01_GROOVE_BIELERSEE
10
112.4000
20
23.3211
30
0.0
0
VERTEX
8
01_GROOVE_BIELERSEE
10
112.8000
20
23.2622
30
0.0
0
VERTEX
8
01_GROOVE_BIELERSEE
10
113.2000
20
23.2037
30
0.0
0
VERTEX
8
01_GROOVE_BIELERSEE
10
113.6000
20
23.1466
30
0.0
0
VERTEX
8
01_GROOVE_BIELERSEE
10
114.0000
20
23.0946
30
0.0
0
VERTEX
8
01_GROOVE_BIELERSEE
10
114.4000
20
23.0416
30
0.0
0
VERTEX
8
01_GROOVE_BIELERSEE
10
114.8000
20
22.9908
30
0.0
0
VERTEX
8
01_GROOVE_BIELERSEE
10
115.2000
20
22.9428
30
0.0
0
VERTEX
8
01_GROOVE_BIELERSEE
10
115.6000
20
22.8940
30
0.0
0
VERTEX
8
01_GROOVE_BIELERSEE
10
115.9963
20
22.8429
30
0.0
0
VERTEX
8
01_GROOVE_BIELERSEE
10
116.3874
20
22.7874
30
0.0
0
VERTEX
8
01_GROOVE_BIELERSEE
10
116.7716
20
22.7250
30
0.0
0
VERTEX
8
01_GROOVE_BIELERSEE
10
117.1469
20
22.6529
30
0.0
0
VERTEX
8
01_GROOVE_BIELERSEE
10
117.5108
20
22.5680
30
0.0
0
VERTEX
8
01_GROOVE_BIELERSEE
10
117.8607
20
22.4699
30
0.0
0
VERTEX
8
01_GROOVE_BIELERSEE
10
118.1939
20
22.3523
30
0.0
0
VERTEX
8
01_GROOVE_BIELERSEE
10
118.5075
20
22.2129
30
0.0
0
VERTEX
8
01_GROOVE_BIELERSEE
10
118.7991
20
22.0525
30
0.0
0
VERTEX
8
01_GROOVE_BIELERSEE
10
119.0663
20
21.8663
30
0.0
0
VERTEX
8
01_GROOVE_BIELERSEE
10
119.3073
20
21.6539
30
0.0
0
VERTEX
8
01_GROOVE_BIELERSEE
10
119.5211
20
21.4158
30
0.0
0
VERTEX
8
01_GROOVE_BIELERSEE
10
119.7073
20
21.1526
30
0.0
0
VERTEX
8
01_GROOVE_BIELERSEE
10
119.8625
20
20.8697
30
0.0
0
VERTEX
8
01_GROOVE_BIELERSEE
10
119.9865
20
20.5702
30
0.0
0
VERTEX
8
01_GROOVE_BIELERSEE
10
120.0792
20
20.2584
30
0.0
0
VERTEX
8
01_GROOVE_BIELERSEE
10
120.1408
20
19.9348
30
0.0
0
VERTEX
8
01_GROOVE_BIELERSEE
10
120.1752
20
19.6031
30
0.0
0
VERTEX
8
01_GROOVE_BIELERSEE
10
120.1804
20
19.2667
30
0.0
0
VERTEX
8
01_GROOVE_BIELERSEE
10
120.1565
20
18.9321
30
0.0
0
VERTEX
8
01_GROOVE_BIELERSEE
10
120.1039
20
18.6032
30
0.0
0
VERTEX
8
01_GROOVE_BIELERSEE
10
120.0226
20
18.2863
30
0.0
0
VERTEX
8
01_GROOVE_BIELERSEE
10
119.9126
20
17.9807
30
0.0
0
VERTEX
8
01_GROOVE_BIELERSEE
10
119.7741
20
17.6895
30
0.0
0
VERTEX
8
01_GROOVE_BIELERSEE
10
119.6075
20
17.4173
30
0.0
0
VERTEX
8
01_GROOVE_BIELERSEE
10
119.4158
20
17.1651
30
0.0
0
VERTEX
8
01_GROOVE_BIELERSEE
10
119.1991
20
16.9335
30
0.0
0
VERTEX
8
01_GROOVE_BIELERSEE
10
118.9580
20
16.7229
30
0.0
0
VERTEX
8
01_GROOVE_BIELERSEE
10
118.6937
20
16.5335
30
0.0
0
VERTEX
8
01_GROOVE_BIELERSEE
10
118.4077
20
16.3651
30
0.0
0
VERTEX
8
01_GROOVE_BIELERSEE
10
118.1018
20
16.2173
30
0.0
0
VERTEX
8
01_GROOVE_BIELERSEE
10
117.7780
20
16.0895
30
0.0
0
VERTEX
8
01_GROOVE_BIELERSEE
10
117.4384
20
15.9807
30
0.0
0
VERTEX
8
01_GROOVE_BIELERSEE
10
117.0853
20
15.8900
30
0.0
0
VERTEX
8
01_GROOVE_BIELERSEE
10
116.7206
20
15.8159
30
0.0
0
VERTEX
8
01_GROOVE_BIELERSEE
10
116.3462
20
15.7567
30
0.0
0
VERTEX
8
01_GROOVE_BIELERSEE
10
115.9639
20
15.7109
30
0.0
0
VERTEX
8
01_GROOVE_BIELERSEE
10
115.5753
20
15.6729
30
0.0
0
VERTEX
8
01_GROOVE_BIELERSEE
10
115.1842
20
15.6368
30
0.0
0
VERTEX
8
01_GROOVE_BIELERSEE
10
114.7949
20
15.6000
30
0.0
0
VERTEX
8
01_GROOVE_BIELERSEE
10
114.4051
20
15.5632
30
0.0
0
VERTEX
8
01_GROOVE_BIELERSEE
10
114.0158
20
15.5271
30
0.0
0
VERTEX
8
01_GROOVE_BIELERSEE
10
113.6247
20
15.4891
30
0.0
0
VERTEX
8
01_GROOVE_BIELERSEE
10
113.2361
20
15.4433
30
0.0
0
VERTEX
8
01_GROOVE_BIELERSEE
10
112.8501
20
15.3879
30
0.0
0
VERTEX
8
01_GROOVE_BIELERSEE
10
112.4668
20
15.3226
30
0.0
0
VERTEX
8
01_GROOVE_BIELERSEE
10
112.0863
20
15.2476
30
0.0
0
VERTEX
8
01_GROOVE_BIELERSEE
10
111.7085
20
15.1637
30
0.0
0
VERTEX
8
01_GROOVE_BIELERSEE
10
111.3328
20
15.0720
30
0.0
0
VERTEX
8
01_GROOVE_BIELERSEE
10
110.9590
20
14.9742
30
0.0
0
VERTEX
8
01_GROOVE_BIELERSEE
10
110.5862
20
14.8726
30
0.0
0
VERTEX
8
01_GROOVE_BIELERSEE
10
110.2138
20
14.7658
30
0.0
0
VERTEX
8
01_GROOVE_BIELERSEE
10
109.8410
20
14.6585
30
0.0
0
VERTEX
8
01_GROOVE_BIELERSEE
10
109.4672
20
14.5529
30
0.0
0
VERTEX
8
01_GROOVE_BIELERSEE
10
109.0915
20
14.4507
30
0.0
0
VERTEX
8
01_GROOVE_BIELERSEE
10
108.7137
20
14.3533
30
0.0
0
VERTEX
8
01_GROOVE_BIELERSEE
10
108.3332
20
14.2619
30
0.0
0
VERTEX
8
01_GROOVE_BIELERSEE
10
107.9499
20
14.1769
30
0.0
0
VERTEX
8
01_GROOVE_BIELERSEE
10
107.5639
20
14.0987
30
0.0
0
VERTEX
8
01_GROOVE_BIELERSEE
10
107.1753
20
14.0273
30
0.0
0
VERTEX
8
01_GROOVE_BIELERSEE
10
106.7842
20
13.9624
30
0.0
0
VERTEX
8
01_GROOVE_BIELERSEE
10
106.3911
20
13.9037
30
0.0
0
VERTEX
8
01_GROOVE_BIELERSEE
10
105.9963
20
13.8536
30
0.0
0
VERTEX
8
01_GROOVE_BIELERSEE
10
105.6000
20
13.8109
30
0.0
0
VERTEX
8
01_GROOVE_BIELERSEE
10
105.2000
20
13.7747
30
0.0
0
VERTEX
8
01_GROOVE_BIELERSEE
10
104.8000
20
13.7417
30
0.0
0
VERTEX
8
01_GROOVE_BIELERSEE
10
104.4000
20
13.7122
30
0.0
0
VERTEX
8
01_GROOVE_BIELERSEE
10
104.0000
20
13.6863
30
0.0
0
VERTEX
8
01_GROOVE_BIELERSEE
10
103.6000
20
13.6668
30
0.0
0
VERTEX
8
01_GROOVE_BIELERSEE
10
103.2000
20
13.6501
30
0.0
0
VERTEX
8
01_GROOVE_BIELERSEE
10
102.8000
20
13.6361
30
0.0
0
VERTEX
8
01_GROOVE_BIELERSEE
10
102.4000
20
13.6247
30
0.0
0
VERTEX
8
01_GROOVE_BIELERSEE
10
102.0000
20
13.6158
30
0.0
0
VERTEX
8
01_GROOVE_BIELERSEE
10
101.6000
20
13.6126
30
0.0
0
VERTEX
8
01_GROOVE_BIELERSEE
10
101.2000
20
13.6126
30
0.0
0
VERTEX
8
01_GROOVE_BIELERSEE
10
100.8000
20
13.6158
30
0.0
0
VERTEX
8
01_GROOVE_BIELERSEE
10
100.4000
20
13.6285
30
0.0
0
VERTEX
8
01_GROOVE_BIELERSEE
10
100.0000
20
13.6450
30
0.0
0
VERTEX
8
01_GROOVE_BIELERSEE
10
99.6000
20
13.6658
30
0.0
0
VERTEX
8
01_GROOVE_BIELERSEE
10
99.2037
20
13.6953
30
0.0
0
VERTEX
8
01_GROOVE_BIELERSEE
10
98.8089
20
13.7350
30
0.0
0
VERTEX
8
01_GROOVE_BIELERSEE
10
98.4158
20
13.7869
30
0.0
0
VERTEX
8
01_GROOVE_BIELERSEE
10
98.0247
20
13.8490
30
0.0
0
VERTEX
8
01_GROOVE_BIELERSEE
10
97.6361
20
13.9219
30
0.0
0
SEQEND
8
01_GROOVE_BIELERSEE
0
POLYLINE
8
01_GROOVE_MORAT
66
1
70
1
0
VERTEX
8
01_GROOVE_MORAT
10
75.2000
20
2.2025
30
0.0
0
VERTEX
8
01_GROOVE_MORAT
10
74.8000
20
2.2264
30
0.0
0
VERTEX
8
01_GROOVE_MORAT
10
74.4000
20
2.2568
30
0.0
0
VERTEX
8
01_GROOVE_MORAT
10
74.0000
20
2.2919
30
0.0
0
VERTEX
8
01_GROOVE_MORAT
10
73.6000
20
2.3276
30
0.0
0
VERTEX
8
01_GROOVE_MORAT
10
73.2000
20
2.3637
30
0.0
0
VERTEX
8
01_GROOVE_MORAT
10
72.8000
20
2.4037
30
0.0
0
VERTEX
8
01_GROOVE_MORAT
10
72.4000
20
2.4489
30
0.0
0
VERTEX
8
01_GROOVE_MORAT
10
72.0000
20
2.4970
30
0.0
0
VERTEX
8
01_GROOVE_MORAT
10
71.6000
20
2.5486
30
0.0
0
VERTEX
8
01_GROOVE_MORAT
10
71.2000
20
2.6040
30
0.0
0
VERTEX
8
01_GROOVE_MORAT
10
70.8000
20
2.6635
30
0.0
0
VERTEX
8
01_GROOVE_MORAT
10
70.4000
20
2.7270
30
0.0
0
VERTEX
8
01_GROOVE_MORAT
10
70.0000
20
2.7942
30
0.0
0
VERTEX
8
01_GROOVE_MORAT
10
69.6000
20
2.8620
30
0.0
0
VERTEX
8
01_GROOVE_MORAT
10
69.2000
20
2.9366
30
0.0
0
VERTEX
8
01_GROOVE_MORAT
10
68.8000
20
3.0143
30
0.0
0
VERTEX
8
01_GROOVE_MORAT
10
68.4000
20
3.0978
30
0.0
0
VERTEX
8
01_GROOVE_MORAT
10
68.0000
20
3.1835
30
0.0
0
VERTEX
8
01_GROOVE_MORAT
10
67.6000
20
3.2706
30
0.0
0
VERTEX
8
01_GROOVE_MORAT
10
67.2000
20
3.3620
30
0.0
0
VERTEX
8
01_GROOVE_MORAT
10
66.8000
20
3.4585
30
0.0
0
VERTEX
8
01_GROOVE_MORAT
10
66.4000
20
3.5611
30
0.0
0
VERTEX
8
01_GROOVE_MORAT
10
66.0000
20
3.6715
30
0.0
0
VERTEX
8
01_GROOVE_MORAT
10
65.6000
20
3.7915
30
0.0
0
VERTEX
8
01_GROOVE_MORAT
10
65.2037
20
3.9205
30
0.0
0
VERTEX
8
01_GROOVE_MORAT
10
64.8126
20
4.0643
30
0.0
0
VERTEX
8
01_GROOVE_MORAT
10
64.4284
20
4.2247
30
0.0
0
VERTEX
8
01_GROOVE_MORAT
10
64.0531
20
4.4035
30
0.0
0
VERTEX
8
01_GROOVE_MORAT
10
63.6892
20
4.6021
30
0.0
0
VERTEX
8
01_GROOVE_MORAT
10
63.3393
20
4.8215
30
0.0
0
VERTEX
8
01_GROOVE_MORAT
10
63.0061
20
5.0597
30
0.0
0
VERTEX
8
01_GROOVE_MORAT
10
62.6925
20
5.3174
30
0.0
0
VERTEX
8
01_GROOVE_MORAT
10
62.4009
20
5.5973
30
0.0
0
VERTEX
8
01_GROOVE_MORAT
10
62.1337
20
5.8980
30
0.0
0
VERTEX
8
01_GROOVE_MORAT
10
61.8927
20
6.2176
30
0.0
0
VERTEX
8
01_GROOVE_MORAT
10
61.6789
20
6.5543
30
0.0
0
VERTEX
8
01_GROOVE_MORAT
10
61.4927
20
6.9057
30
0.0
0
VERTEX
8
01_GROOVE_MORAT
10
61.3337
20
7.2697
30
0.0
0
VERTEX
8
01_GROOVE_MORAT
10
61.2046
20
7.6442
30
0.0
0
VERTEX
8
01_GROOVE_MORAT
10
61.1013
20
8.0247
30
0.0
0
VERTEX
8
01_GROOVE_MORAT
10
61.0219
20
8.4126
30
0.0
0
VERTEX
8
01_GROOVE_MORAT
10
60.9678
20
8.8037
30
0.0
0
VERTEX
8
01_GROOVE_MORAT
10
60.9342
20
9.2000
30
0.0
0
VERTEX
8
01_GROOVE_MORAT
10
60.9227
20
9.6000
30
0.0
0
VERTEX
8
01_GROOVE_MORAT
10
60.9326
20
9.9963
30
0.0
0
VERTEX
8
01_GROOVE_MORAT
10
60.9634
20
10.3874
30
0.0
0
VERTEX
8
01_GROOVE_MORAT
10
61.0154
20
10.7716
30
0.0
0
VERTEX
8
01_GROOVE_MORAT
10
61.0889
20
11.1469
30
0.0
0
VERTEX
8
01_GROOVE_MORAT
10
61.1846
20
11.5108
30
0.0
0
VERTEX
8
01_GROOVE_MORAT
10
61.3008
20
11.8607
30
0.0
0
VERTEX
8
01_GROOVE_MORAT
10
61.4391
20
12.1939
30
0.0
0
VERTEX
8
01_GROOVE_MORAT
10
61.6009
20
12.5075
30
0.0
0
VERTEX
8
01_GROOVE_MORAT
10
61.7871
20
12.7991
30
0.0
0
VERTEX
8
01_GROOVE_MORAT
10
61.9980
20
13.0663
30
0.0
0
VERTEX
8
01_GROOVE_MORAT
10
62.2336
20
13.3073
30
0.0
0
VERTEX
8
01_GROOVE_MORAT
10
62.4930
20
13.5211
30
0.0
0
VERTEX
8
01_GROOVE_MORAT
10
62.7752
20
13.7036
30
0.0
0
VERTEX
8
01_GROOVE_MORAT
10
63.0785
20
13.8574
30
0.0
0
VERTEX
8
01_GROOVE_MORAT
10
63.4009
20
13.9833
30
0.0
0
VERTEX
8
01_GROOVE_MORAT
10
63.7403
20
14.0828
30
0.0
0
VERTEX
8
01_GROOVE_MORAT
10
64.0943
20
14.1578
30
0.0
0
VERTEX
8
01_GROOVE_MORAT
10
64.4607
20
14.2106
30
0.0
0
VERTEX
8
01_GROOVE_MORAT
10
64.8374
20
14.2440
30
0.0
0
VERTEX
8
01_GROOVE_MORAT
10
65.2195
20
14.2568
30
0.0
0
VERTEX
8
01_GROOVE_MORAT
10
65.6089
20
14.2543
30
0.0
0
VERTEX
8
01_GROOVE_MORAT
10
66.0037
20
14.2388
30
0.0
0
VERTEX
8
01_GROOVE_MORAT
10
66.4000
20
14.2126
30
0.0
0
VERTEX
8
01_GROOVE_MORAT
10
66.8000
20
14.1777
30
0.0
0
VERTEX
8
01_GROOVE_MORAT
10
67.2000
20
14.1361
30
0.0
0
VERTEX
8
01_GROOVE_MORAT
10
67.6000
20
14.0921
30
0.0
0
VERTEX
8
01_GROOVE_MORAT
10
68.0000
20
14.0427
30
0.0
0
VERTEX
8
01_GROOVE_MORAT
10
68.4000
20
13.9911
30
0.0
0
VERTEX
8
01_GROOVE_MORAT
10
68.8000
20
13.9340
30
0.0
0
VERTEX
8
01_GROOVE_MORAT
10
69.2000
20
13.8743
30
0.0
0
VERTEX
8
01_GROOVE_MORAT
10
69.6000
20
13.8083
30
0.0
0
VERTEX
8
01_GROOVE_MORAT
10
70.0000
20
13.7386
30
0.0
0
VERTEX
8
01_GROOVE_MORAT
10
70.4000
20
13.6650
30
0.0
0
VERTEX
8
01_GROOVE_MORAT
10
70.8000
20
13.5837
30
0.0
0
VERTEX
8
01_GROOVE_MORAT
10
71.2000
20
13.4933
30
0.0
0
VERTEX
8
01_GROOVE_MORAT
10
71.6000
20
13.3962
30
0.0
0
VERTEX
8
01_GROOVE_MORAT
10
72.0000
20
13.2921
30
0.0
0
VERTEX
8
01_GROOVE_MORAT
10
72.4000
20
13.1839
30
0.0
0
VERTEX
8
01_GROOVE_MORAT
10
72.8000
20
13.0650
30
0.0
0
VERTEX
8
01_GROOVE_MORAT
10
73.2000
20
12.9389
30
0.0
0
VERTEX
8
01_GROOVE_MORAT
10
73.6000
20
12.8032
30
0.0
0
VERTEX
8
01_GROOVE_MORAT
10
74.0000
20
12.6617
30
0.0
0
VERTEX
8
01_GROOVE_MORAT
10
74.4000
20
12.5160
30
0.0
0
VERTEX
8
01_GROOVE_MORAT
10
74.8000
20
12.3676
30
0.0
0
VERTEX
8
01_GROOVE_MORAT
10
75.2000
20
12.2212
30
0.0
0
VERTEX
8
01_GROOVE_MORAT
10
75.6000
20
12.0750
30
0.0
0
VERTEX
8
01_GROOVE_MORAT
10
76.0000
20
11.9310
30
0.0
0
VERTEX
8
01_GROOVE_MORAT
10
76.3963
20
11.7876
30
0.0
0
VERTEX
8
01_GROOVE_MORAT
10
76.7874
20
11.6449
30
0.0
0
VERTEX
8
01_GROOVE_MORAT
10
77.1716
20
11.5030
30
0.0
0
VERTEX
8
01_GROOVE_MORAT
10
77.5469
20
11.3609
30
0.0
0
VERTEX
8
01_GROOVE_MORAT
10
77.9108
20
11.2200
30
0.0
0
VERTEX
8
01_GROOVE_MORAT
10
78.2607
20
11.0748
30
0.0
0
VERTEX
8
01_GROOVE_MORAT
10
78.5939
20
10.9259
30
0.0
0
VERTEX
8
01_GROOVE_MORAT
10
78.9075
20
10.7672
30
0.0
0
VERTEX
8
01_GROOVE_MORAT
10
79.1991
20
10.5990
30
0.0
0
VERTEX
8
01_GROOVE_MORAT
10
79.4663
20
10.4153
30
0.0
0
VERTEX
8
01_GROOVE_MORAT
10
79.7073
20
10.2140
30
0.0
0
VERTEX
8
01_GROOVE_MORAT
10
79.9174
20
9.9959
30
0.0
0
VERTEX
8
01_GROOVE_MORAT
10
80.0984
20
9.7592
30
0.0
0
VERTEX
8
01_GROOVE_MORAT
10
80.2505
20
9.4999
30
0.0
0
VERTEX
8
01_GROOVE_MORAT
10
80.3744
20
9.2186
30
0.0
0
VERTEX
8
01_GROOVE_MORAT
10
80.4715
20
8.9164
30
0.0
0
VERTEX
8
01_GROOVE_MORAT
10
80.5401
20
8.5976
30
0.0
0
VERTEX
8
01_GROOVE_MORAT
10
80.5850
20
8.2607
30
0.0
0
VERTEX
8
01_GROOVE_MORAT
10
80.6087
20
7.9108
30
0.0
0
VERTEX
8
01_GROOVE_MORAT
10
80.6137
20
7.5469
30
0.0
0
VERTEX
8
01_GROOVE_MORAT
10
80.5990
20
7.1716
30
0.0
0
VERTEX
8
01_GROOVE_MORAT
10
80.5657
20
6.7874
30
0.0
0
VERTEX
8
01_GROOVE_MORAT
10
80.5149
20
6.4000
30
0.0
0
VERTEX
8
01_GROOVE_MORAT
10
80.4467
20
6.0126
30
0.0
0
VERTEX
8
01_GROOVE_MORAT
10
80.3613
20
5.6284
30
0.0
0
VERTEX
8
01_GROOVE_MORAT
10
80.2607
20
5.2531
30
0.0
0
VERTEX
8
01_GROOVE_MORAT
10
80.1434
20
4.8892
30
0.0
0
VERTEX
8
01_GROOVE_MORAT
10
80.0077
20
4.5393
30
0.0
0
VERTEX
8
01_GROOVE_MORAT
10
79.8521
20
4.2061
30
0.0
0
VERTEX
8
01_GROOVE_MORAT
10
79.6753
20
3.8925
30
0.0
0
VERTEX
8
01_GROOVE_MORAT
10
79.4762
20
3.6009
30
0.0
0
VERTEX
8
01_GROOVE_MORAT
10
79.2543
20
3.3337
30
0.0
0
VERTEX
8
01_GROOVE_MORAT
10
79.0094
20
3.0964
30
0.0
0
VERTEX
8
01_GROOVE_MORAT
10
78.7420
20
2.8878
30
0.0
0
VERTEX
8
01_GROOVE_MORAT
10
78.4529
20
2.7085
30
0.0
0
VERTEX
8
01_GROOVE_MORAT
10
78.1436
20
2.5585
30
0.0
0
VERTEX
8
01_GROOVE_MORAT
10
77.8186
20
2.4370
30
0.0
0
VERTEX
8
01_GROOVE_MORAT
10
77.4765
20
2.3425
30
0.0
0
VERTEX
8
01_GROOVE_MORAT
10
77.1197
20
2.2729
30
0.0
0
VERTEX
8
01_GROOVE_MORAT
10
76.7506
20
2.2256
30
0.0
0
VERTEX
8
01_GROOVE_MORAT
10
76.3716
20
2.1977
30
0.0
0
VERTEX
8
01_GROOVE_MORAT
10
75.9874
20
2.1860
30
0.0
0
VERTEX
8
01_GROOVE_MORAT
10
75.5963
20
2.1873
30
0.0
0
SEQEND
8
01_GROOVE_MORAT
0
POLYLINE
8
01_GROOVE_LINK_BIELERSEE
66
1
70
0
0
VERTEX
8
01_GROOVE_LINK_BIELERSEE
10
79.3710
20
25.8167
30
0.0
0
VERTEX
8
01_GROOVE_LINK_BIELERSEE
10
79.5053
20
25.8141
30
0.0
0
SEQEND
8
01_GROOVE_LINK_BIELERSEE
0
POLYLINE
8
01_GROOVE_LINK_MORAT
66
1
70
0
0
VERTEX
8
01_GROOVE_LINK_MORAT
10
68.8361
20
17.0198
30
0.0
0
VERTEX
8
01_GROOVE_LINK_MORAT
10
68.4000
20
13.9911
30
0.0
0
SEQEND
8
01_GROOVE_LINK_MORAT
0
POLYLINE
8
02_LAKE_NEUCHATEL
66
1
70
1
0
VERTEX
8
02_LAKE_NEUCHATEL
10
70.4326
20
19.1510
30
0.0
0
VERTEX
8
02_LAKE_NEUCHATEL
10
70.0487
20
19.2002
30
0.0
0
VERTEX
8
02_LAKE_NEUCHATEL
10
69.6688
20
19.2544
30
0.0
0
VERTEX
8
02_LAKE_NEUCHATEL
10
69.2928
20
19.3138
30
0.0
0
VERTEX
8
02_LAKE_NEUCHATEL
10
68.9205
20
19.3827
30
0.0
0
VERTEX
8
02_LAKE_NEUCHATEL
10
68.5510
20
19.4580
30
0.0
0
VERTEX
8
02_LAKE_NEUCHATEL
10
68.1835
20
19.5386
30
0.0
0
VERTEX
8
02_LAKE_NEUCHATEL
10
67.8165
20
19.6202
30
0.0
0
VERTEX
8
02_LAKE_NEUCHATEL
10
67.4490
20
19.7051
30
0.0
0
VERTEX
8
02_LAKE_NEUCHATEL
10
67.0795
20
19.7908
30
0.0
0
VERTEX
8
02_LAKE_NEUCHATEL
10
66.7072
20
19.8750
30
0.0
0
VERTEX
8
02_LAKE_NEUCHATEL
10
66.3312
20
19.9633
30
0.0
0
VERTEX
8
02_LAKE_NEUCHATEL
10
65.9513
20
20.0445
30
0.0
0
VERTEX
8
02_LAKE_NEUCHATEL
10
65.5674
20
20.1223
30
0.0
0
VERTEX
8
02_LAKE_NEUCHATEL
10
65.1798
20
20.1963
30
0.0
0
VERTEX
8
02_LAKE_NEUCHATEL
10
64.7890
20
20.2710
30
0.0
0
VERTEX
8
02_LAKE_NEUCHATEL
10
64.3955
20
20.3439
30
0.0
0
VERTEX
8
02_LAKE_NEUCHATEL
10
64.0000
20
20.4157
30
0.0
0
VERTEX
8
02_LAKE_NEUCHATEL
10
63.6000
20
20.4843
30
0.0
0
VERTEX
8
02_LAKE_NEUCHATEL
10
63.2000
20
20.5510
30
0.0
0
VERTEX
8
02_LAKE_NEUCHATEL
10
62.8000
20
20.6196
30
0.0
0
VERTEX
8
02_LAKE_NEUCHATEL
10
62.4000
20
20.6892
30
0.0
0
VERTEX
8
02_LAKE_NEUCHATEL
10
62.0000
20
20.7584
30
0.0
0
VERTEX
8
02_LAKE_NEUCHATEL
10
61.6000
20
20.8216
30
0.0
0
VERTEX
8
02_LAKE_NEUCHATEL
10
61.2000
20
20.8796
30
0.0
0
VERTEX
8
02_LAKE_NEUCHATEL
10
60.8000
20
20.9320
30
0.0
0
VERTEX
8
02_LAKE_NEUCHATEL
10
60.4000
20
20.9786
30
0.0
0
VERTEX
8
02_LAKE_NEUCHATEL
10
60.0000
20
21.0184
30
0.0
0
VERTEX
8
02_LAKE_NEUCHATEL
10
59.6000
20
21.0508
30
0.0
0
VERTEX
8
02_LAKE_NEUCHATEL
10
59.2000
20
21.0761
30
0.0
0
VERTEX
8
02_LAKE_NEUCHATEL
10
58.8000
20
21.0951
30
0.0
0
VERTEX
8
02_LAKE_NEUCHATEL
10
58.4000
20
21.1092
30
0.0
0
VERTEX
8
02_LAKE_NEUCHATEL
10
58.0000
20
21.1168
30
0.0
0
VERTEX
8
02_LAKE_NEUCHATEL
10
57.6000
20
21.1235
30
0.0
0
VERTEX
8
02_LAKE_NEUCHATEL
10
57.2000
20
21.1345
30
0.0
0
VERTEX
8
02_LAKE_NEUCHATEL
10
56.8000
20
21.1481
30
0.0
0
VERTEX
8
02_LAKE_NEUCHATEL
10
56.4000
20
21.1620
30
0.0
0
VERTEX
8
02_LAKE_NEUCHATEL
10
56.0000
20
21.1765
30
0.0
0
VERTEX
8
02_LAKE_NEUCHATEL
10
55.6000
20
21.1981
30
0.0
0
VERTEX
8
02_LAKE_NEUCHATEL
10
55.2000
20
21.2234
30
0.0
0
VERTEX
8
02_LAKE_NEUCHATEL
10
54.8000
20
21.2519
30
0.0
0
VERTEX
8
02_LAKE_NEUCHATEL
10
54.4000
20
21.2872
30
0.0
0
VERTEX
8
02_LAKE_NEUCHATEL
10
54.0000
20
21.3262
30
0.0
0
VERTEX
8
02_LAKE_NEUCHATEL
10
53.6000
20
21.3686
30
0.0
0
VERTEX
8
02_LAKE_NEUCHATEL
10
53.2000
20
21.4216
30
0.0
0
VERTEX
8
02_LAKE_NEUCHATEL
10
52.8000
20
21.4782
30
0.0
0
VERTEX
8
02_LAKE_NEUCHATEL
10
52.4000
20
21.5406
30
0.0
0
VERTEX
8
02_LAKE_NEUCHATEL
10
52.0000
20
21.6106
30
0.0
0
VERTEX
8
02_LAKE_NEUCHATEL
10
51.6000
20
21.6882
30
0.0
0
VERTEX
8
02_LAKE_NEUCHATEL
10
51.2000
20
21.7777
30
0.0
0
VERTEX
8
02_LAKE_NEUCHATEL
10
50.8000
20
21.8758
30
0.0
0
VERTEX
8
02_LAKE_NEUCHATEL
10
50.4000
20
21.9818
30
0.0
0
VERTEX
8
02_LAKE_NEUCHATEL
10
50.0000
20
22.0989
30
0.0
0
VERTEX
8
02_LAKE_NEUCHATEL
10
49.6000
20
22.2226
30
0.0
0
VERTEX
8
02_LAKE_NEUCHATEL
10
49.2000
20
22.3513
30
0.0
0
VERTEX
8
02_LAKE_NEUCHATEL
10
48.8000
20
22.4799
30
0.0
0
VERTEX
8
02_LAKE_NEUCHATEL
10
48.4000
20
22.6100
30
0.0
0
VERTEX
8
02_LAKE_NEUCHATEL
10
48.0000
20
22.7433
30
0.0
0
VERTEX
8
02_LAKE_NEUCHATEL
10
47.6000
20
22.8778
30
0.0
0
VERTEX
8
02_LAKE_NEUCHATEL
10
47.2000
20
23.0046
30
0.0
0
VERTEX
8
02_LAKE_NEUCHATEL
10
46.8000
20
23.1222
30
0.0
0
VERTEX
8
02_LAKE_NEUCHATEL
10
46.4000
20
23.2317
30
0.0
0
VERTEX
8
02_LAKE_NEUCHATEL
10
46.0000
20
23.3286
30
0.0
0
VERTEX
8
02_LAKE_NEUCHATEL
10
45.6000
20
23.4157
30
0.0
0
VERTEX
8
02_LAKE_NEUCHATEL
10
45.2000
20
23.4915
30
0.0
0
VERTEX
8
02_LAKE_NEUCHATEL
10
44.8000
20
23.5522
30
0.0
0
VERTEX
8
02_LAKE_NEUCHATEL
10
44.4000
20
23.6016
30
0.0
0
VERTEX
8
02_LAKE_NEUCHATEL
10
44.0000
20
23.6363
30
0.0
0
VERTEX
8
02_LAKE_NEUCHATEL
10
43.6000
20
23.6608
30
0.0
0
VERTEX
8
02_LAKE_NEUCHATEL
10
43.2000
20
23.6758
30
0.0
0
VERTEX
8
02_LAKE_NEUCHATEL
10
42.8000
20
23.6796
30
0.0
0
VERTEX
8
02_LAKE_NEUCHATEL
10
42.4000
20
23.6822
30
0.0
0
VERTEX
8
02_LAKE_NEUCHATEL
10
42.0000
20
23.6828
30
0.0
0
VERTEX
8
02_LAKE_NEUCHATEL
10
41.6000
20
23.6804
30
0.0
0
VERTEX
8
02_LAKE_NEUCHATEL
10
41.2000
20
23.6812
30
0.0
0
VERTEX
8
02_LAKE_NEUCHATEL
10
40.8000
20
23.6820
30
0.0
0
VERTEX
8
02_LAKE_NEUCHATEL
10
40.4000
20
23.6860
30
0.0
0
VERTEX
8
02_LAKE_NEUCHATEL
10
40.0000
20
23.6928
30
0.0
0
VERTEX
8
02_LAKE_NEUCHATEL
10
39.6000
20
23.6989
30
0.0
0
VERTEX
8
02_LAKE_NEUCHATEL
10
39.2000
20
23.7112
30
0.0
0
VERTEX
8
02_LAKE_NEUCHATEL
10
38.8000
20
23.7257
30
0.0
0
VERTEX
8
02_LAKE_NEUCHATEL
10
38.4000
20
23.7484
30
0.0
0
VERTEX
8
02_LAKE_NEUCHATEL
10
38.0000
20
23.7722
30
0.0
0
VERTEX
8
02_LAKE_NEUCHATEL
10
37.6000
20
23.7975
30
0.0
0
VERTEX
8
02_LAKE_NEUCHATEL
10
37.2000
20
23.8252
30
0.0
0
VERTEX
8
02_LAKE_NEUCHATEL
10
36.8000
20
23.8562
30
0.0
0
VERTEX
8
02_LAKE_NEUCHATEL
10
36.4000
20
23.8916
30
0.0
0
VERTEX
8
02_LAKE_NEUCHATEL
10
36.0000
20
23.9317
30
0.0
0
VERTEX
8
02_LAKE_NEUCHATEL
10
35.6000
20
23.9810
30
0.0
0
VERTEX
8
02_LAKE_NEUCHATEL
10
35.2000
20
24.0364
30
0.0
0
VERTEX
8
02_LAKE_NEUCHATEL
10
34.8000
20
24.1014
30
0.0
0
VERTEX
8
02_LAKE_NEUCHATEL
10
34.4000
20
24.1724
30
0.0
0
VERTEX
8
02_LAKE_NEUCHATEL
10
34.0000
20
24.2453
30
0.0
0
VERTEX
8
02_LAKE_NEUCHATEL
10
33.6000
20
24.3277
30
0.0
0
VERTEX
8
02_LAKE_NEUCHATEL
10
33.2000
20
24.4155
30
0.0
0
VERTEX
8
02_LAKE_NEUCHATEL
10
32.8000
20
24.5081
30
0.0
0
VERTEX
8
02_LAKE_NEUCHATEL
10
32.4000
20
24.6075
30
0.0
0
VERTEX
8
02_LAKE_NEUCHATEL
10
32.0000
20
24.7090
30
0.0
0
VERTEX
8
02_LAKE_NEUCHATEL
10
31.6000
20
24.8117
30
0.0
0
VERTEX
8
02_LAKE_NEUCHATEL
10
31.2000
20
24.9143
30
0.0
0
VERTEX
8
02_LAKE_NEUCHATEL
10
30.8000
20
25.0121
30
0.0
0
VERTEX
8
02_LAKE_NEUCHATEL
10
30.4000
20
25.1072
30
0.0
0
VERTEX
8
02_LAKE_NEUCHATEL
10
30.0000
20
25.1986
30
0.0
0
VERTEX
8
02_LAKE_NEUCHATEL
10
29.6000
20
25.2860
30
0.0
0
VERTEX
8
02_LAKE_NEUCHATEL
10
29.2000
20
25.3677
30
0.0
0
VERTEX
8
02_LAKE_NEUCHATEL
10
28.8000
20
25.4432
30
0.0
0
VERTEX
8
02_LAKE_NEUCHATEL
10
28.4000
20
25.5078
30
0.0
0
VERTEX
8
02_LAKE_NEUCHATEL
10
28.0000
20
25.5643
30
0.0
0
VERTEX
8
02_LAKE_NEUCHATEL
10
27.6000
20
25.6128
30
0.0
0
VERTEX
8
02_LAKE_NEUCHATEL
10
27.2000
20
25.6507
30
0.0
0
VERTEX
8
02_LAKE_NEUCHATEL
10
26.8000
20
25.6865
30
0.0
0
VERTEX
8
02_LAKE_NEUCHATEL
10
26.4000
20
25.7146
30
0.0
0
VERTEX
8
02_LAKE_NEUCHATEL
10
26.0000
20
25.7394
30
0.0
0
VERTEX
8
02_LAKE_NEUCHATEL
10
25.6000
20
25.7611
30
0.0
0
VERTEX
8
02_LAKE_NEUCHATEL
10
25.2000
20
25.7817
30
0.0
0
VERTEX
8
02_LAKE_NEUCHATEL
10
24.8000
20
25.8035
30
0.0
0
VERTEX
8
02_LAKE_NEUCHATEL
10
24.4000
20
25.8277
30
0.0
0
VERTEX
8
02_LAKE_NEUCHATEL
10
24.0000
20
25.8509
30
0.0
0
VERTEX
8
02_LAKE_NEUCHATEL
10
23.6000
20
25.8766
30
0.0
0
VERTEX
8
02_LAKE_NEUCHATEL
10
23.2000
20
25.9091
30
0.0
0
VERTEX
8
02_LAKE_NEUCHATEL
10
22.8000
20
25.9500
30
0.0
0
VERTEX
8
02_LAKE_NEUCHATEL
10
22.4000
20
25.9962
30
0.0
0
VERTEX
8
02_LAKE_NEUCHATEL
10
22.0000
20
26.0472
30
0.0
0
VERTEX
8
02_LAKE_NEUCHATEL
10
21.6000
20
26.0994
30
0.0
0
VERTEX
8
02_LAKE_NEUCHATEL
10
21.2000
20
26.1603
30
0.0
0
VERTEX
8
02_LAKE_NEUCHATEL
10
20.8000
20
26.2264
30
0.0
0
VERTEX
8
02_LAKE_NEUCHATEL
10
20.4045
20
26.3014
30
0.0
0
VERTEX
8
02_LAKE_NEUCHATEL
10
20.0110
20
26.3900
30
0.0
0
VERTEX
8
02_LAKE_NEUCHATEL
10
19.6247
20
26.4901
30
0.0
0
VERTEX
8
02_LAKE_NEUCHATEL
10
19.2481
20
26.6044
30
0.0
0
VERTEX
8
02_LAKE_NEUCHATEL
10
18.8845
20
26.7357
30
0.0
0
VERTEX
8
02_LAKE_NEUCHATEL
10
18.5327
20
26.8835
30
0.0
0
VERTEX
8
02_LAKE_NEUCHATEL
10
18.1989
20
27.0542
30
0.0
0
VERTEX
8
02_LAKE_NEUCHATEL
10
17.8817
20
27.2492
30
0.0
0
VERTEX
8
02_LAKE_NEUCHATEL
10
17.5817
20
27.4695
30
0.0
0
VERTEX
8
02_LAKE_NEUCHATEL
10
17.2982
20
27.7124
30
0.0
0
VERTEX
8
02_LAKE_NEUCHATEL
10
17.0296
20
27.9769
30
0.0
0
VERTEX
8
02_LAKE_NEUCHATEL
10
16.7728
20
28.2641
30
0.0
0
VERTEX
8
02_LAKE_NEUCHATEL
10
16.5234
20
28.5742
30
0.0
0
VERTEX
8
02_LAKE_NEUCHATEL
10
16.2766
20
28.9001
30
0.0
0
VERTEX
8
02_LAKE_NEUCHATEL
10
16.0272
20
29.2313
30
0.0
0
VERTEX
8
02_LAKE_NEUCHATEL
10
15.7704
20
29.5683
30
0.0
0
VERTEX
8
02_LAKE_NEUCHATEL
10
15.5018
20
29.9072
30
0.0
0
VERTEX
8
02_LAKE_NEUCHATEL
10
15.2183
20
30.2424
30
0.0
0
VERTEX
8
02_LAKE_NEUCHATEL
10
14.9183
20
30.5690
30
0.0
0
VERTEX
8
02_LAKE_NEUCHATEL
10
14.6011
20
30.8838
30
0.0
0
VERTEX
8
02_LAKE_NEUCHATEL
10
14.2673
20
31.1845
30
0.0
0
VERTEX
8
02_LAKE_NEUCHATEL
10
13.9155
20
31.4693
30
0.0
0
VERTEX
8
02_LAKE_NEUCHATEL
10
13.5519
20
31.7343
30
0.0
0
VERTEX
8
02_LAKE_NEUCHATEL
10
13.1753
20
31.9791
30
0.0
0
VERTEX
8
02_LAKE_NEUCHATEL
10
12.7890
20
32.2034
30
0.0
0
VERTEX
8
02_LAKE_NEUCHATEL
10
12.3955
20
32.4076
30
0.0
0
VERTEX
8
02_LAKE_NEUCHATEL
10
12.0000
20
32.5966
30
0.0
0
VERTEX
8
02_LAKE_NEUCHATEL
10
11.6000
20
32.7732
30
0.0
0
VERTEX
8
02_LAKE_NEUCHATEL
10
11.2000
20
32.9362
30
0.0
0
VERTEX
8
02_LAKE_NEUCHATEL
10
10.8000
20
33.0922
30
0.0
0
VERTEX
8
02_LAKE_NEUCHATEL
10
10.4000
20
33.2404
30
0.0
0
VERTEX
8
02_LAKE_NEUCHATEL
10
10.0000
20
33.3857
30
0.0
0
VERTEX
8
02_LAKE_NEUCHATEL
10
9.6000
20
33.5302
30
0.0
0
VERTEX
8
02_LAKE_NEUCHATEL
10
9.2000
20
33.6728
30
0.0
0
VERTEX
8
02_LAKE_NEUCHATEL
10
8.8000
20
33.8145
30
0.0
0
VERTEX
8
02_LAKE_NEUCHATEL
10
8.4000
20
33.9585
30
0.0
0
VERTEX
8
02_LAKE_NEUCHATEL
10
8.0045
20
34.1047
30
0.0
0
VERTEX
8
02_LAKE_NEUCHATEL
10
7.6155
20
34.2572
30
0.0
0
VERTEX
8
02_LAKE_NEUCHATEL
10
7.2313
20
34.4158
30
0.0
0
VERTEX
8
02_LAKE_NEUCHATEL
10
6.8529
20
34.5766
30
0.0
0
VERTEX
8
02_LAKE_NEUCHATEL
10
6.4814
20
34.7400
30
0.0
0
VERTEX
8
02_LAKE_NEUCHATEL
10
6.1220
20
34.9111
30
0.0
0
VERTEX
8
02_LAKE_NEUCHATEL
10
5.7772
20
35.0884
30
0.0
0
VERTEX
8
02_LAKE_NEUCHATEL
10
5.4491
20
35.2778
30
0.0
0
VERTEX
8
02_LAKE_NEUCHATEL
10
5.1444
20
35.4810
30
0.0
0
VERTEX
8
02_LAKE_NEUCHATEL
10
4.8671
20
35.6954
30
0.0
0
VERTEX
8
02_LAKE_NEUCHATEL
10
4.6217
20
35.9253
30
0.0
0
VERTEX
8
02_LAKE_NEUCHATEL
10
4.4082
20
36.1682
30
0.0
0
VERTEX
8
02_LAKE_NEUCHATEL
10
4.2294
20
36.4256
30
0.0
0
VERTEX
8
02_LAKE_NEUCHATEL
10
4.0917
20
36.7004
30
0.0
0
VERTEX
8
02_LAKE_NEUCHATEL
10
3.9935
20
36.9883
30
0.0
0
VERTEX
8
02_LAKE_NEUCHATEL
10
3.9396
20
37.2871
30
0.0
0
VERTEX
8
02_LAKE_NEUCHATEL
10
3.9304
20
37.5926
30
0.0
0
VERTEX
8
02_LAKE_NEUCHATEL
10
3.9654
20
37.8976
30
0.0
0
VERTEX
8
02_LAKE_NEUCHATEL
10
4.0429
20
38.2014
30
0.0
0
VERTEX
8
02_LAKE_NEUCHATEL
10
4.1606
20
38.4945
30
0.0
0
VERTEX
8
02_LAKE_NEUCHATEL
10
4.3154
20
38.7743
30
0.0
0
VERTEX
8
02_LAKE_NEUCHATEL
10
4.5012
20
39.0325
30
0.0
0
VERTEX
8
02_LAKE_NEUCHATEL
10
4.7161
20
39.2654
30
0.0
0
VERTEX
8
02_LAKE_NEUCHATEL
10
4.9609
20
39.4698
30
0.0
0
VERTEX
8
02_LAKE_NEUCHATEL
10
5.2325
20
39.6462
30
0.0
0
VERTEX
8
02_LAKE_NEUCHATEL
10
5.5282
20
39.7850
30
0.0
0
VERTEX
8
02_LAKE_NEUCHATEL
10
5.8425
20
39.8895
30
0.0
0
VERTEX
8
02_LAKE_NEUCHATEL
10
6.1742
20
39.9610
30
0.0
0
VERTEX
8
02_LAKE_NEUCHATEL
10
6.5217
20
40.0024
30
0.0
0
VERTEX
8
02_LAKE_NEUCHATEL
10
6.8800
20
40.0131
30
0.0
0
VERTEX
8
02_LAKE_NEUCHATEL
10
7.2481
20
40.0028
30
0.0
0
VERTEX
8
02_LAKE_NEUCHATEL
10
7.6247
20
39.9672
30
0.0
0
VERTEX
8
02_LAKE_NEUCHATEL
10
8.0110
20
39.9087
30
0.0
0
VERTEX
8
02_LAKE_NEUCHATEL
10
8.4045
20
39.8333
30
0.0
0
VERTEX
8
02_LAKE_NEUCHATEL
10
8.8000
20
39.7436
30
0.0
0
VERTEX
8
02_LAKE_NEUCHATEL
10
9.2000
20
39.6419
30
0.0
0
VERTEX
8
02_LAKE_NEUCHATEL
10
9.6000
20
39.5332
30
0.0
0
VERTEX
8
02_LAKE_NEUCHATEL
10
10.0000
20
39.4188
30
0.0
0
VERTEX
8
02_LAKE_NEUCHATEL
10
10.4000
20
39.3005
30
0.0
0
VERTEX
8
02_LAKE_NEUCHATEL
10
10.8000
20
39.1808
30
0.0
0
VERTEX
8
02_LAKE_NEUCHATEL
10
11.2000
20
39.0653
30
0.0
0
VERTEX
8
02_LAKE_NEUCHATEL
10
11.6000
20
38.9486
30
0.0
0
VERTEX
8
02_LAKE_NEUCHATEL
10
12.0000
20
38.8365
30
0.0
0
VERTEX
8
02_LAKE_NEUCHATEL
10
12.4000
20
38.7311
30
0.0
0
VERTEX
8
02_LAKE_NEUCHATEL
10
12.8000
20
38.6339
30
0.0
0
VERTEX
8
02_LAKE_NEUCHATEL
10
13.2000
20
38.5411
30
0.0
0
VERTEX
8
02_LAKE_NEUCHATEL
10
13.6000
20
38.4579
30
0.0
0
VERTEX
8
02_LAKE_NEUCHATEL
10
14.0000
20
38.3793
30
0.0
0
VERTEX
8
02_LAKE_NEUCHATEL
10
14.4000
20
38.3042
30
0.0
0
VERTEX
8
02_LAKE_NEUCHATEL
10
14.8000
20
38.2315
30
0.0
0
VERTEX
8
02_LAKE_NEUCHATEL
10
15.2000
20
38.1632
30
0.0
0
VERTEX
8
02_LAKE_NEUCHATEL
10
15.6000
20
38.0951
30
0.0
0
VERTEX
8
02_LAKE_NEUCHATEL
10
16.0000
20
38.0305
30
0.0
0
VERTEX
8
02_LAKE_NEUCHATEL
10
16.4000
20
37.9695
30
0.0
0
VERTEX
8
02_LAKE_NEUCHATEL
10
16.8000
20
37.9094
30
0.0
0
VERTEX
8
02_LAKE_NEUCHATEL
10
17.2000
20
37.8523
30
0.0
0
VERTEX
8
02_LAKE_NEUCHATEL
10
17.6000
20
37.7953
30
0.0
0
VERTEX
8
02_LAKE_NEUCHATEL
10
18.0000
20
37.7421
30
0.0
0
VERTEX
8
02_LAKE_NEUCHATEL
10
18.4000
20
37.6884
30
0.0
0
VERTEX
8
02_LAKE_NEUCHATEL
10
18.8000
20
37.6362
30
0.0
0
VERTEX
8
02_LAKE_NEUCHATEL
10
19.2000
20
37.5843
30
0.0
0
VERTEX
8
02_LAKE_NEUCHATEL
10
19.6000
20
37.5312
30
0.0
0
VERTEX
8
02_LAKE_NEUCHATEL
10
20.0000
20
37.4786
30
0.0
0
VERTEX
8
02_LAKE_NEUCHATEL
10
20.4000
20
37.4217
30
0.0
0
VERTEX
8
02_LAKE_NEUCHATEL
10
20.8000
20
37.3606
30
0.0
0
VERTEX
8
02_LAKE_NEUCHATEL
10
21.2000
20
37.2916
30
0.0
0
VERTEX
8
02_LAKE_NEUCHATEL
10
21.6000
20
37.2214
30
0.0
0
VERTEX
8
02_LAKE_NEUCHATEL
10
22.0000
20
37.1429
30
0.0
0
VERTEX
8
02_LAKE_NEUCHATEL
10
22.4000
20
37.0603
30
0.0
0
VERTEX
8
02_LAKE_NEUCHATEL
10
22.8000
20
36.9749
30
0.0
0
VERTEX
8
02_LAKE_NEUCHATEL
10
23.2000
20
36.8878
30
0.0
0
VERTEX
8
02_LAKE_NEUCHATEL
10
23.6000
20
36.8045
30
0.0
0
VERTEX
8
02_LAKE_NEUCHATEL
10
24.0000
20
36.7232
30
0.0
0
VERTEX
8
02_LAKE_NEUCHATEL
10
24.4000
20
36.6498
30
0.0
0
VERTEX
8
02_LAKE_NEUCHATEL
10
24.8000
20
36.5834
30
0.0
0
VERTEX
8
02_LAKE_NEUCHATEL
10
25.2000
20
36.5261
30
0.0
0
VERTEX
8
02_LAKE_NEUCHATEL
10
25.6000
20
36.4801
30
0.0
0
VERTEX
8
02_LAKE_NEUCHATEL
10
26.0000
20
36.4500
30
0.0
0
VERTEX
8
02_LAKE_NEUCHATEL
10
26.4000
20
36.4376
30
0.0
0
VERTEX
8
02_LAKE_NEUCHATEL
10
26.8000
20
36.4442
30
0.0
0
VERTEX
8
02_LAKE_NEUCHATEL
10
27.2000
20
36.4658
30
0.0
0
VERTEX
8
02_LAKE_NEUCHATEL
10
27.6000
20
36.5061
30
0.0
0
VERTEX
8
02_LAKE_NEUCHATEL
10
28.0000
20
36.5612
30
0.0
0
VERTEX
8
02_LAKE_NEUCHATEL
10
28.4000
20
36.6288
30
0.0
0
VERTEX
8
02_LAKE_NEUCHATEL
10
28.8000
20
36.7063
30
0.0
0
VERTEX
8
02_LAKE_NEUCHATEL
10
29.2000
20
36.7910
30
0.0
0
VERTEX
8
02_LAKE_NEUCHATEL
10
29.6000
20
36.8827
30
0.0
0
VERTEX
8
02_LAKE_NEUCHATEL
10
30.0000
20
36.9704
30
0.0
0
VERTEX
8
02_LAKE_NEUCHATEL
10
30.4000
20
37.0570
30
0.0
0
VERTEX
8
02_LAKE_NEUCHATEL
10
30.8000
20
37.1361
30
0.0
0
VERTEX
8
02_LAKE_NEUCHATEL
10
31.2000
20
37.2056
30
0.0
0
VERTEX
8
02_LAKE_NEUCHATEL
10
31.6000
20
37.2639
30
0.0
0
VERTEX
8
02_LAKE_NEUCHATEL
10
32.0000
20
37.3069
30
0.0
0
VERTEX
8
02_LAKE_NEUCHATEL
10
32.4000
20
37.3379
30
0.0
0
VERTEX
8
02_LAKE_NEUCHATEL
10
32.8000
20
37.3540
30
0.0
0
VERTEX
8
02_LAKE_NEUCHATEL
10
33.2000
20
37.3599
30
0.0
0
VERTEX
8
02_LAKE_NEUCHATEL
10
33.6000
20
37.3568
30
0.0
0
VERTEX
8
02_LAKE_NEUCHATEL
10
34.0000
20
37.3463
30
0.0
0
VERTEX
8
02_LAKE_NEUCHATEL
10
34.4000
20
37.3308
30
0.0
0
VERTEX
8
02_LAKE_NEUCHATEL
10
34.8000
20
37.3095
30
0.0
0
VERTEX
8
02_LAKE_NEUCHATEL
10
35.2000
20
37.2884
30
0.0
0
VERTEX
8
02_LAKE_NEUCHATEL
10
35.6000
20
37.2688
30
0.0
0
VERTEX
8
02_LAKE_NEUCHATEL
10
36.0000
20
37.2487
30
0.0
0
VERTEX
8
02_LAKE_NEUCHATEL
10
36.4000
20
37.2326
30
0.0
0
VERTEX
8
02_LAKE_NEUCHATEL
10
36.8000
20
37.2202
30
0.0
0
VERTEX
8
02_LAKE_NEUCHATEL
10
37.2000
20
37.2110
30
0.0
0
VERTEX
8
02_LAKE_NEUCHATEL
10
37.6000
20
37.2000
30
0.0
0
VERTEX
8
02_LAKE_NEUCHATEL
10
38.0000
20
37.1890
30
0.0
0
VERTEX
8
02_LAKE_NEUCHATEL
10
38.4000
20
37.1798
30
0.0
0
VERTEX
8
02_LAKE_NEUCHATEL
10
38.8000
20
37.1674
30
0.0
0
VERTEX
8
02_LAKE_NEUCHATEL
10
39.2000
20
37.1513
30
0.0
0
VERTEX
8
02_LAKE_NEUCHATEL
10
39.6000
20
37.1312
30
0.0
0
VERTEX
8
02_LAKE_NEUCHATEL
10
40.0000
20
37.1027
30
0.0
0
VERTEX
8
02_LAKE_NEUCHATEL
10
40.4000
20
37.0640
30
0.0
0
VERTEX
8
02_LAKE_NEUCHATEL
10
40.8000
20
37.0177
30
0.0
0
VERTEX
8
02_LAKE_NEUCHATEL
10
41.2000
20
36.9592
30
0.0
0
VERTEX
8
02_LAKE_NEUCHATEL
10
41.6000
20
36.8910
30
0.0
0
VERTEX
8
02_LAKE_NEUCHATEL
10
42.0000
20
36.8132
30
0.0
0
VERTEX
8
02_LAKE_NEUCHATEL
10
42.4000
20
36.7262
30
0.0
0
VERTEX
8
02_LAKE_NEUCHATEL
10
42.8000
20
36.6308
30
0.0
0
VERTEX
8
02_LAKE_NEUCHATEL
10
43.2000
20
36.5330
30
0.0
0
VERTEX
8
02_LAKE_NEUCHATEL
10
43.6000
20
36.4325
30
0.0
0
VERTEX
8
02_LAKE_NEUCHATEL
10
44.0000
20
36.3324
30
0.0
0
VERTEX
8
02_LAKE_NEUCHATEL
10
44.4000
20
36.2363
30
0.0
0
VERTEX
8
02_LAKE_NEUCHATEL
10
44.8000
20
36.1478
30
0.0
0
VERTEX
8
02_LAKE_NEUCHATEL
10
45.2000
20
36.0656
30
0.0
0
VERTEX
8
02_LAKE_NEUCHATEL
10
45.6000
20
35.9900
30
0.0
0
VERTEX
8
02_LAKE_NEUCHATEL
10
46.0000
20
35.9228
30
0.0
0
VERTEX
8
02_LAKE_NEUCHATEL
10
46.4000
20
35.8614
30
0.0
0
VERTEX
8
02_LAKE_NEUCHATEL
10
46.8000
20
35.7990
30
0.0
0
VERTEX
8
02_LAKE_NEUCHATEL
10
47.2000
20
35.7353
30
0.0
0
VERTEX
8
02_LAKE_NEUCHATEL
10
47.6000
20
35.6665
30
0.0
0
VERTEX
8
02_LAKE_NEUCHATEL
10
48.0000
20
35.5894
30
0.0
0
VERTEX
8
02_LAKE_NEUCHATEL
10
48.4000
20
35.5051
30
0.0
0
VERTEX
8
02_LAKE_NEUCHATEL
10
48.8000
20
35.4119
30
0.0
0
VERTEX
8
02_LAKE_NEUCHATEL
10
49.2000
20
35.3119
30
0.0
0
VERTEX
8
02_LAKE_NEUCHATEL
10
49.6000
20
35.2134
30
0.0
0
VERTEX
8
02_LAKE_NEUCHATEL
10
50.0000
20
35.1150
30
0.0
0
VERTEX
8
02_LAKE_NEUCHATEL
10
50.4000
20
35.0272
30
0.0
0
VERTEX
8
02_LAKE_NEUCHATEL
10
50.8000
20
34.9535
30
0.0
0
VERTEX
8
02_LAKE_NEUCHATEL
10
51.2000
20
34.9037
30
0.0
0
VERTEX
8
02_LAKE_NEUCHATEL
10
51.5955
20
34.8805
30
0.0
0
VERTEX
8
02_LAKE_NEUCHATEL
10
51.9890
20
34.8878
30
0.0
0
VERTEX
8
02_LAKE_NEUCHATEL
10
52.3798
20
34.9304
30
0.0
0
VERTEX
8
02_LAKE_NEUCHATEL
10
52.7674
20
35.0087
30
0.0
0
VERTEX
8
02_LAKE_NEUCHATEL
10
53.1513
20
35.1174
30
0.0
0
VERTEX
8
02_LAKE_NEUCHATEL
10
53.5312
20
35.2558
30
0.0
0
VERTEX
8
02_LAKE_NEUCHATEL
10
53.9072
20
35.4177
30
0.0
0
VERTEX
8
02_LAKE_NEUCHATEL
10
54.2795
20
35.5968
30
0.0
0
VERTEX
8
02_LAKE_NEUCHATEL
10
54.6490
20
35.7835
30
0.0
0
VERTEX
8
02_LAKE_NEUCHATEL
10
55.0165
20
35.9708
30
0.0
0
VERTEX
8
02_LAKE_NEUCHATEL
10
55.3835
20
36.1473
30
0.0
0
VERTEX
8
02_LAKE_NEUCHATEL
10
55.7510
20
36.3100
30
0.0
0
VERTEX
8
02_LAKE_NEUCHATEL
10
56.1205
20
36.4493
30
0.0
0
VERTEX
8
02_LAKE_NEUCHATEL
10
56.4928
20
36.5588
30
0.0
0
VERTEX
8
02_LAKE_NEUCHATEL
10
56.8688
20
36.6374
30
0.0
0
VERTEX
8
02_LAKE_NEUCHATEL
10
57.2487
20
36.6752
30
0.0
0
VERTEX
8
02_LAKE_NEUCHATEL
10
57.6326
20
36.6708
30
0.0
0
VERTEX
8
02_LAKE_NEUCHATEL
10
58.0202
20
36.6309
30
0.0
0
VERTEX
8
02_LAKE_NEUCHATEL
10
58.4110
20
36.5541
30
0.0
0
VERTEX
8
02_LAKE_NEUCHATEL
10
58.8045
20
36.4479
30
0.0
0
VERTEX
8
02_LAKE_NEUCHATEL
10
59.2000
20
36.3142
30
0.0
0
VERTEX
8
02_LAKE_NEUCHATEL
10
59.6000
20
36.1599
30
0.0
0
VERTEX
8
02_LAKE_NEUCHATEL
10
60.0000
20
35.9910
30
0.0
0
VERTEX
8
02_LAKE_NEUCHATEL
10
60.4000
20
35.8136
30
0.0
0
VERTEX
8
02_LAKE_NEUCHATEL
10
60.8000
20
35.6344
30
0.0
0
VERTEX
8
02_LAKE_NEUCHATEL
10
61.1955
20
35.4576
30
0.0
0
VERTEX
8
02_LAKE_NEUCHATEL
10
61.5890
20
35.2848
30
0.0
0
VERTEX
8
02_LAKE_NEUCHATEL
10
61.9798
20
35.1158
30
0.0
0
VERTEX
8
02_LAKE_NEUCHATEL
10
62.3674
20
34.9535
30
0.0
0
VERTEX
8
02_LAKE_NEUCHATEL
10
62.7513
20
34.7924
30
0.0
0
VERTEX
8
02_LAKE_NEUCHATEL
10
63.1312
20
34.6366
30
0.0
0
VERTEX
8
02_LAKE_NEUCHATEL
10
63.5072
20
34.4828
30
0.0
0
VERTEX
8
02_LAKE_NEUCHATEL
10
63.8795
20
34.3215
30
0.0
0
VERTEX
8
02_LAKE_NEUCHATEL
10
64.2490
20
34.1582
30
0.0
0
VERTEX
8
02_LAKE_NEUCHATEL
10
64.6165
20
33.9920
30
0.0
0
VERTEX
8
02_LAKE_NEUCHATEL
10
64.9835
20
33.8163
30
0.0
0
VERTEX
8
02_LAKE_NEUCHATEL
10
65.3510
20
33.6396
30
0.0
0
VERTEX
8
02_LAKE_NEUCHATEL
10
65.7205
20
33.4636
30
0.0
0
VERTEX
8
02_LAKE_NEUCHATEL
10
66.0928
20
33.2880
30
0.0
0
VERTEX
8
02_LAKE_NEUCHATEL
10
66.4688
20
33.1166
30
0.0
0
VERTEX
8
02_LAKE_NEUCHATEL
10
66.8487
20
32.9526
30
0.0
0
VERTEX
8
02_LAKE_NEUCHATEL
10
67.2326
20
32.7944
30
0.0
0
VERTEX
8
02_LAKE_NEUCHATEL
10
67.6202
20
32.6464
30
0.0
0
VERTEX
8
02_LAKE_NEUCHATEL
10
68.0110
20
32.5125
30
0.0
0
VERTEX
8
02_LAKE_NEUCHATEL
10
68.4045
20
32.3844
30
0.0
0
VERTEX
8
02_LAKE_NEUCHATEL
10
68.8000
20
32.2647
30
0.0
0
VERTEX
8
02_LAKE_NEUCHATEL
10
69.2000
20
32.1555
30
0.0
0
VERTEX
8
02_LAKE_NEUCHATEL
10
69.6000
20
32.0503
30
0.0
0
VERTEX
8
02_LAKE_NEUCHATEL
10
70.0000
20
31.9452
30
0.0
0
VERTEX
8
02_LAKE_NEUCHATEL
10
70.4000
20
31.8380
30
0.0
0
VERTEX
8
02_LAKE_NEUCHATEL
10
70.7955
20
31.7261
30
0.0
0
VERTEX
8
02_LAKE_NEUCHATEL
10
71.1845
20
31.6032
30
0.0
0
VERTEX
8
02_LAKE_NEUCHATEL
10
71.5643
20
31.4669
30
0.0
0
VERTEX
8
02_LAKE_NEUCHATEL
10
71.9316
20
31.3180
30
0.0
0
VERTEX
8
02_LAKE_NEUCHATEL
10
72.2829
20
31.1503
30
0.0
0
VERTEX
8
02_LAKE_NEUCHATEL
10
72.6141
20
30.9624
30
0.0
0
VERTEX
8
02_LAKE_NEUCHATEL
10
72.9257
20
30.7560
30
0.0
0
VERTEX
8
02_LAKE_NEUCHATEL
10
73.2118
20
30.5262
30
0.0
0
VERTEX
8
02_LAKE_NEUCHATEL
10
73.4699
20
30.2732
30
0.0
0
VERTEX
8
02_LAKE_NEUCHATEL
10
73.7034
20
29.9975
30
0.0
0
VERTEX
8
02_LAKE_NEUCHATEL
10
73.9140
20
29.7046
30
0.0
0
VERTEX
8
02_LAKE_NEUCHATEL
10
74.1053
20
29.3936
30
0.0
0
VERTEX
8
02_LAKE_NEUCHATEL
10
74.2824
20
29.0745
30
0.0
0
VERTEX
8
02_LAKE_NEUCHATEL
10
74.4472
20
28.7436
30
0.0
0
VERTEX
8
02_LAKE_NEUCHATEL
10
74.6088
20
28.4047
30
0.0
0
VERTEX
8
02_LAKE_NEUCHATEL
10
74.7736
20
28.0688
30
0.0
0
VERTEX
8
02_LAKE_NEUCHATEL
10
74.9474
20
27.7324
30
0.0
0
VERTEX
8
02_LAKE_NEUCHATEL
10
75.1350
20
27.3985
30
0.0
0
VERTEX
8
02_LAKE_NEUCHATEL
10
75.3310
20
27.0720
30
0.0
0
VERTEX
8
02_LAKE_NEUCHATEL
10
75.5381
20
26.7527
30
0.0
0
VERTEX
8
02_LAKE_NEUCHATEL
10
75.7540
20
26.4364
30
0.0
0
VERTEX
8
02_LAKE_NEUCHATEL
10
75.9780
20
26.1253
30
0.0
0
VERTEX
8
02_LAKE_NEUCHATEL
10
76.1995
20
25.8165
30
0.0
0
VERTEX
8
02_LAKE_NEUCHATEL
10
76.4146
20
25.5072
30
0.0
0
VERTEX
8
02_LAKE_NEUCHATEL
10
76.6165
20
25.1942
30
0.0
0
VERTEX
8
02_LAKE_NEUCHATEL
10
76.7993
20
24.8750
30
0.0
0
VERTEX
8
02_LAKE_NEUCHATEL
10
76.9583
20
24.5475
30
0.0
0
VERTEX
8
02_LAKE_NEUCHATEL
10
77.0828
20
24.2105
30
0.0
0
VERTEX
8
02_LAKE_NEUCHATEL
10
77.1736
20
23.8635
30
0.0
0
VERTEX
8
02_LAKE_NEUCHATEL
10
77.2327
20
23.5065
30
0.0
0
VERTEX
8
02_LAKE_NEUCHATEL
10
77.2536
20
23.1402
30
0.0
0
VERTEX
8
02_LAKE_NEUCHATEL
10
77.2376
20
22.7674
30
0.0
0
VERTEX
8
02_LAKE_NEUCHATEL
10
77.1863
20
22.3953
30
0.0
0
VERTEX
8
02_LAKE_NEUCHATEL
10
77.1014
20
22.0247
30
0.0
0
VERTEX
8
02_LAKE_NEUCHATEL
10
76.9869
20
21.6594
30
0.0
0
VERTEX
8
02_LAKE_NEUCHATEL
10
76.8401
20
21.3061
30
0.0
0
VERTEX
8
02_LAKE_NEUCHATEL
10
76.6621
20
20.9657
30
0.0
0
VERTEX
8
02_LAKE_NEUCHATEL
10
76.4540
20
20.6461
30
0.0
0
VERTEX
8
02_LAKE_NEUCHATEL
10
76.2168
20
20.3505
30
0.0
0
VERTEX
8
02_LAKE_NEUCHATEL
10
75.9580
20
20.0815
30
0.0
0
VERTEX
8
02_LAKE_NEUCHATEL
10
75.6741
20
19.8454
30
0.0
0
VERTEX
8
02_LAKE_NEUCHATEL
10
75.3669
20
19.6408
30
0.0
0
VERTEX
8
02_LAKE_NEUCHATEL
10
75.0388
20
19.4685
30
0.0
0
VERTEX
8
02_LAKE_NEUCHATEL
10
74.6955
20
19.3280
30
0.0
0
VERTEX
8
02_LAKE_NEUCHATEL
10
74.3357
20
19.2137
30
0.0
0
VERTEX
8
02_LAKE_NEUCHATEL
10
73.9629
20
19.1304
30
0.0
0
VERTEX
8
02_LAKE_NEUCHATEL
10
73.5798
20
19.0725
30
0.0
0
VERTEX
8
02_LAKE_NEUCHATEL
10
73.1890
20
19.0366
30
0.0
0
VERTEX
8
02_LAKE_NEUCHATEL
10
72.7955
20
19.0192
30
0.0
0
VERTEX
8
02_LAKE_NEUCHATEL
10
72.4000
20
19.0166
30
0.0
0
VERTEX
8
02_LAKE_NEUCHATEL
10
72.0000
20
19.0252
30
0.0
0
VERTEX
8
02_LAKE_NEUCHATEL
10
71.6045
20
19.0460
30
0.0
0
VERTEX
8
02_LAKE_NEUCHATEL
10
71.2110
20
19.0755
30
0.0
0
VERTEX
8
02_LAKE_NEUCHATEL
10
70.8202
20
19.1105
30
0.0
0
SEQEND
8
02_LAKE_NEUCHATEL
0
POLYLINE
8
02_LAKE_BIELERSEE
66
1
70
1
0
VERTEX
8
02_LAKE_BIELERSEE
10
99.2326
20
15.9402
30
0.0
0
VERTEX
8
02_LAKE_BIELERSEE
10
98.8487
20
16.0386
30
0.0
0
VERTEX
8
02_LAKE_BIELERSEE
10
98.4688
20
16.1502
30
0.0
0
VERTEX
8
02_LAKE_BIELERSEE
10
98.0928
20
16.2779
30
0.0
0
VERTEX
8
02_LAKE_BIELERSEE
10
97.7205
20
16.4169
30
0.0
0
VERTEX
8
02_LAKE_BIELERSEE
10
97.3510
20
16.5647
30
0.0
0
VERTEX
8
02_LAKE_BIELERSEE
10
96.9835
20
16.7229
30
0.0
0
VERTEX
8
02_LAKE_BIELERSEE
10
96.6165
20
16.8898
30
0.0
0
VERTEX
8
02_LAKE_BIELERSEE
10
96.2490
20
17.0600
30
0.0
0
VERTEX
8
02_LAKE_BIELERSEE
10
95.8795
20
17.2355
30
0.0
0
VERTEX
8
02_LAKE_BIELERSEE
10
95.5072
20
17.4159
30
0.0
0
VERTEX
8
02_LAKE_BIELERSEE
10
95.1312
20
17.6020
30
0.0
0
VERTEX
8
02_LAKE_BIELERSEE
10
94.7513
20
17.7876
30
0.0
0
VERTEX
8
02_LAKE_BIELERSEE
10
94.3674
20
17.9813
30
0.0
0
VERTEX
8
02_LAKE_BIELERSEE
10
93.9798
20
18.1801
30
0.0
0
VERTEX
8
02_LAKE_BIELERSEE
10
93.5890
20
18.3852
30
0.0
0
VERTEX
8
02_LAKE_BIELERSEE
10
93.2000
20
18.6017
30
0.0
0
VERTEX
8
02_LAKE_BIELERSEE
10
92.8200
20
18.8255
30
0.0
0
VERTEX
8
02_LAKE_BIELERSEE
10
92.4512
20
19.0519
30
0.0
0
VERTEX
8
02_LAKE_BIELERSEE
10
92.1041
20
19.2793
30
0.0
0
VERTEX
8
02_LAKE_BIELERSEE
10
91.7855
20
19.5096
30
0.0
0
VERTEX
8
02_LAKE_BIELERSEE
10
91.4986
20
19.7446
30
0.0
0
VERTEX
8
02_LAKE_BIELERSEE
10
91.2492
20
19.9823
30
0.0
0
VERTEX
8
02_LAKE_BIELERSEE
10
91.0423
20
20.2214
30
0.0
0
VERTEX
8
02_LAKE_BIELERSEE
10
90.8767
20
20.4589
30
0.0
0
VERTEX
8
02_LAKE_BIELERSEE
10
90.7514
20
20.6997
30
0.0
0
VERTEX
8
02_LAKE_BIELERSEE
10
90.6624
20
20.9454
30
0.0
0
VERTEX
8
02_LAKE_BIELERSEE
10
90.6024
20
21.1950
30
0.0
0
VERTEX
8
02_LAKE_BIELERSEE
10
90.5617
20
21.4525
30
0.0
0
VERTEX
8
02_LAKE_BIELERSEE
10
90.5285
20
21.7195
30
0.0
0
VERTEX
8
02_LAKE_BIELERSEE
10
90.4905
20
21.9925
30
0.0
0
VERTEX
8
02_LAKE_BIELERSEE
10
90.4359
20
22.2711
30
0.0
0
VERTEX
8
02_LAKE_BIELERSEE
10
90.3546
20
22.5575
30
0.0
0
VERTEX
8
02_LAKE_BIELERSEE
10
90.2387
20
22.8486
30
0.0
0
VERTEX
8
02_LAKE_BIELERSEE
10
90.0838
20
23.1359
30
0.0
0
VERTEX
8
02_LAKE_BIELERSEE
10
89.8881
20
23.4178
30
0.0
0
VERTEX
8
02_LAKE_BIELERSEE
10
89.6528
20
23.6897
30
0.0
0
VERTEX
8
02_LAKE_BIELERSEE
10
89.3783
20
23.9451
30
0.0
0
VERTEX
8
02_LAKE_BIELERSEE
10
89.0674
20
24.1838
30
0.0
0
VERTEX
8
02_LAKE_BIELERSEE
10
88.7271
20
24.4028
30
0.0
0
VERTEX
8
02_LAKE_BIELERSEE
10
88.3643
20
24.6050
30
0.0
0
VERTEX
8
02_LAKE_BIELERSEE
10
87.9845
20
24.7845
30
0.0
0
VERTEX
8
02_LAKE_BIELERSEE
10
87.5955
20
24.9482
30
0.0
0
VERTEX
8
02_LAKE_BIELERSEE
10
87.2045
20
25.1005
30
0.0
0
VERTEX
8
02_LAKE_BIELERSEE
10
86.8110
20
25.2466
30
0.0
0
VERTEX
8
02_LAKE_BIELERSEE
10
86.4202
20
25.3876
30
0.0
0
VERTEX
8
02_LAKE_BIELERSEE
10
86.0326
20
25.5267
30
0.0
0
VERTEX
8
02_LAKE_BIELERSEE
10
85.6487
20
25.6664
30
0.0
0
VERTEX
8
02_LAKE_BIELERSEE
10
85.2688
20
25.8083
30
0.0
0
VERTEX
8
02_LAKE_BIELERSEE
10
84.8928
20
25.9481
30
0.0
0
VERTEX
8
02_LAKE_BIELERSEE
10
84.5205
20
26.0900
30
0.0
0
VERTEX
8
02_LAKE_BIELERSEE
10
84.1555
20
26.2350
30
0.0
0
VERTEX
8
02_LAKE_BIELERSEE
10
83.8034
20
26.3763
30
0.0
0
VERTEX
8
02_LAKE_BIELERSEE
10
83.4678
20
26.5119
30
0.0
0
VERTEX
8
02_LAKE_BIELERSEE
10
83.1531
20
26.6445
30
0.0
0
VERTEX
8
02_LAKE_BIELERSEE
10
82.8650
20
26.7696
30
0.0
0
VERTEX
8
02_LAKE_BIELERSEE
10
82.6102
20
26.8864
30
0.0
0
VERTEX
8
02_LAKE_BIELERSEE
10
82.3959
20
26.9926
30
0.0
0
VERTEX
8
02_LAKE_BIELERSEE
10
82.2293
20
27.0934
30
0.0
0
VERTEX
8
02_LAKE_BIELERSEE
10
82.1169
20
27.1900
30
0.0
0
VERTEX
8
02_LAKE_BIELERSEE
10
82.0638
20
27.2839
30
0.0
0
VERTEX
8
02_LAKE_BIELERSEE
10
82.0730
20
27.3773
30
0.0
0
VERTEX
8
02_LAKE_BIELERSEE
10
82.1451
20
27.4763
30
0.0
0
VERTEX
8
02_LAKE_BIELERSEE
10
82.2736
20
27.5796
30
0.0
0
VERTEX
8
02_LAKE_BIELERSEE
10
82.4492
20
27.6898
30
0.0
0
VERTEX
8
02_LAKE_BIELERSEE
10
82.6718
20
27.8050
30
0.0
0
VERTEX
8
02_LAKE_BIELERSEE
10
82.9326
20
27.9286
30
0.0
0
VERTEX
8
02_LAKE_BIELERSEE
10
83.2227
20
28.0598
30
0.0
0
VERTEX
8
02_LAKE_BIELERSEE
10
83.5337
20
28.1976
30
0.0
0
VERTEX
8
02_LAKE_BIELERSEE
10
83.8583
20
28.3407
30
0.0
0
VERTEX
8
02_LAKE_BIELERSEE
10
84.1912
20
28.4860
30
0.0
0
VERTEX
8
02_LAKE_BIELERSEE
10
84.5285
20
28.6292
30
0.0
0
VERTEX
8
02_LAKE_BIELERSEE
10
84.8655
20
28.7598
30
0.0
0
VERTEX
8
02_LAKE_BIELERSEE
10
85.2000
20
28.8759
30
0.0
0
VERTEX
8
02_LAKE_BIELERSEE
10
85.5300
20
28.9677
30
0.0
0
VERTEX
8
02_LAKE_BIELERSEE
10
85.8560
20
29.0296
30
0.0
0
VERTEX
8
02_LAKE_BIELERSEE
10
86.1776
20
29.0591
30
0.0
0
VERTEX
8
02_LAKE_BIELERSEE
10
86.4978
20
29.0505
30
0.0
0
VERTEX
8
02_LAKE_BIELERSEE
10
86.8159
20
29.0042
30
0.0
0
VERTEX
8
02_LAKE_BIELERSEE
10
87.1312
20
28.9201
30
0.0
0
VERTEX
8
02_LAKE_BIELERSEE
10
87.4425
20
28.8005
30
0.0
0
VERTEX
8
02_LAKE_BIELERSEE
10
87.7491
20
28.6499
30
0.0
0
VERTEX
8
02_LAKE_BIELERSEE
10
88.0512
20
28.4673
30
0.0
0
VERTEX
8
02_LAKE_BIELERSEE
10
88.3495
20
28.2640
30
0.0
0
VERTEX
8
02_LAKE_BIELERSEE
10
88.6490
20
28.0441
30
0.0
0
VERTEX
8
02_LAKE_BIELERSEE
10
88.9510
20
27.8139
30
0.0
0
VERTEX
8
02_LAKE_BIELERSEE
10
89.2550
20
27.5858
30
0.0
0
VERTEX
8
02_LAKE_BIELERSEE
10
89.5643
20
27.3594
30
0.0
0
VERTEX
8
02_LAKE_BIELERSEE
10
89.8821
20
27.1403
30
0.0
0
VERTEX
8
02_LAKE_BIELERSEE
10
90.2104
20
26.9255
30
0.0
0
VERTEX
8
02_LAKE_BIELERSEE
10
90.5502
20
26.7180
30
0.0
0
VERTEX
8
02_LAKE_BIELERSEE
10
90.9016
20
26.5157
30
0.0
0
VERTEX
8
02_LAKE_BIELERSEE
10
91.2639
20
26.3166
30
0.0
0
VERTEX
8
02_LAKE_BIELERSEE
10
91.6357
20
26.1231
30
0.0
0
VERTEX
8
02_LAKE_BIELERSEE
10
92.0155
20
25.9343
30
0.0
0
VERTEX
8
02_LAKE_BIELERSEE
10
92.4045
20
25.7502
30
0.0
0
VERTEX
8
02_LAKE_BIELERSEE
10
92.8000
20
25.5720
30
0.0
0
VERTEX
8
02_LAKE_BIELERSEE
10
93.2000
20
25.4061
30
0.0
0
VERTEX
8
02_LAKE_BIELERSEE
10
93.6000
20
25.2524
30
0.0
0
VERTEX
8
02_LAKE_BIELERSEE
10
94.0000
20
25.1065
30
0.0
0
VERTEX
8
02_LAKE_BIELERSEE
10
94.4000
20
24.9744
30
0.0
0
VERTEX
8
02_LAKE_BIELERSEE
10
94.8000
20
24.8586
30
0.0
0
VERTEX
8
02_LAKE_BIELERSEE
10
95.2000
20
24.7600
30
0.0
0
VERTEX
8
02_LAKE_BIELERSEE
10
95.6000
20
24.6771
30
0.0
0
VERTEX
8
02_LAKE_BIELERSEE
10
96.0000
20
24.6069
30
0.0
0
VERTEX
8
02_LAKE_BIELERSEE
10
96.4000
20
24.5504
30
0.0
0
VERTEX
8
02_LAKE_BIELERSEE
10
96.8000
20
24.4993
30
0.0
0
VERTEX
8
02_LAKE_BIELERSEE
10
97.2000
20
24.4494
30
0.0
0
VERTEX
8
02_LAKE_BIELERSEE
10
97.6000
20
24.4012
30
0.0
0
VERTEX
8
02_LAKE_BIELERSEE
10
98.0000
20
24.3440
30
0.0
0
VERTEX
8
02_LAKE_BIELERSEE
10
98.4000
20
24.2824
30
0.0
0
VERTEX
8
02_LAKE_BIELERSEE
10
98.8000
20
24.2116
30
0.0
0
VERTEX
8
02_LAKE_BIELERSEE
10
99.2000
20
24.1352
30
0.0
0
VERTEX
8
02_LAKE_BIELERSEE
10
99.6000
20
24.0504
30
0.0
0
VERTEX
8
02_LAKE_BIELERSEE
10
100.0000
20
23.9552
30
0.0
0
VERTEX
8
02_LAKE_BIELERSEE
10
100.4000
20
23.8548
30
0.0
0
VERTEX
8
02_LAKE_BIELERSEE
10
100.8000
20
23.7469
30
0.0
0
VERTEX
8
02_LAKE_BIELERSEE
10
101.2000
20
23.6362
30
0.0
0
VERTEX
8
02_LAKE_BIELERSEE
10
101.6000
20
23.5168
30
0.0
0
VERTEX
8
02_LAKE_BIELERSEE
10
102.0000
20
23.3965
30
0.0
0
VERTEX
8
02_LAKE_BIELERSEE
10
102.4000
20
23.2782
30
0.0
0
VERTEX
8
02_LAKE_BIELERSEE
10
102.8000
20
23.1538
30
0.0
0
VERTEX
8
02_LAKE_BIELERSEE
10
103.2000
20
23.0263
30
0.0
0
VERTEX
8
02_LAKE_BIELERSEE
10
103.6000
20
22.8961
30
0.0
0
VERTEX
8
02_LAKE_BIELERSEE
10
104.0000
20
22.7667
30
0.0
0
VERTEX
8
02_LAKE_BIELERSEE
10
104.4000
20
22.6355
30
0.0
0
VERTEX
8
02_LAKE_BIELERSEE
10
104.8000
20
22.5043
30
0.0
0
VERTEX
8
02_LAKE_BIELERSEE
10
105.2000
20
22.3786
30
0.0
0
VERTEX
8
02_LAKE_BIELERSEE
10
105.6000
20
22.2568
30
0.0
0
VERTEX
8
02_LAKE_BIELERSEE
10
106.0000
20
22.1416
30
0.0
0
VERTEX
8
02_LAKE_BIELERSEE
10
106.4000
20
22.0385
30
0.0
0
VERTEX
8
02_LAKE_BIELERSEE
10
106.8000
20
21.9408
30
0.0
0
VERTEX
8
02_LAKE_BIELERSEE
10
107.2000
20
21.8525
30
0.0
0
VERTEX
8
02_LAKE_BIELERSEE
10
107.6000
20
21.7737
30
0.0
0
VERTEX
8
02_LAKE_BIELERSEE
10
108.0000
20
21.6994
30
0.0
0
VERTEX
8
02_LAKE_BIELERSEE
10
108.4000
20
21.6337
30
0.0
0
VERTEX
8
02_LAKE_BIELERSEE
10
108.8000
20
21.5707
30
0.0
0
VERTEX
8
02_LAKE_BIELERSEE
10
109.2000
20
21.5116
30
0.0
0
VERTEX
8
02_LAKE_BIELERSEE
10
109.6000
20
21.4510
30
0.0
0
VERTEX
8
02_LAKE_BIELERSEE
10
110.0000
20
21.3912
30
0.0
0
VERTEX
8
02_LAKE_BIELERSEE
10
110.4000
20
21.3282
30
0.0
0
VERTEX
8
02_LAKE_BIELERSEE
10
110.8000
20
21.2630
30
0.0
0
VERTEX
8
02_LAKE_BIELERSEE
10
111.2000
20
21.2000
30
0.0
0
VERTEX
8
02_LAKE_BIELERSEE
10
111.6000
20
21.1370
30
0.0
0
VERTEX
8
02_LAKE_BIELERSEE
10
112.0000
20
21.0763
30
0.0
0
VERTEX
8
02_LAKE_BIELERSEE
10
112.4000
20
21.0198
30
0.0
0
VERTEX
8
02_LAKE_BIELERSEE
10
112.8000
20
20.9692
30
0.0
0
VERTEX
8
02_LAKE_BIELERSEE
10
113.2000
20
20.9210
30
0.0
0
VERTEX
8
02_LAKE_BIELERSEE
10
113.6000
20
20.8780
30
0.0
0
VERTEX
8
02_LAKE_BIELERSEE
10
114.0000
20
20.8395
30
0.0
0
VERTEX
8
02_LAKE_BIELERSEE
10
114.4000
20
20.8000
30
0.0
0
VERTEX
8
02_LAKE_BIELERSEE
10
114.7955
20
20.7560
30
0.0
0
VERTEX
8
02_LAKE_BIELERSEE
10
115.1845
20
20.7065
30
0.0
0
VERTEX
8
02_LAKE_BIELERSEE
10
115.5643
20
20.6433
30
0.0
0
VERTEX
8
02_LAKE_BIELERSEE
10
115.9271
20
20.5669
30
0.0
0
VERTEX
8
02_LAKE_BIELERSEE
10
116.2674
20
20.4785
30
0.0
0
VERTEX
8
02_LAKE_BIELERSEE
10
116.5783
20
20.3735
30
0.0
0
VERTEX
8
02_LAKE_BIELERSEE
10
116.8528
20
20.2481
30
0.0
0
VERTEX
8
02_LAKE_BIELERSEE
10
117.0881
20
20.1024
30
0.0
0
VERTEX
8
02_LAKE_BIELERSEE
10
117.2748
20
19.9369
30
0.0
0
VERTEX
8
02_LAKE_BIELERSEE
10
117.4077
20
19.7574
30
0.0
0
VERTEX
8
02_LAKE_BIELERSEE
10
117.4831
20
19.5672
30
0.0
0
VERTEX
8
02_LAKE_BIELERSEE
10
117.4992
20
19.3700
30
0.0
0
VERTEX
8
02_LAKE_BIELERSEE
10
117.4563
20
19.1700
30
0.0
0
VERTEX
8
02_LAKE_BIELERSEE
10
117.3566
20
18.9712
30
0.0
0
VERTEX
8
02_LAKE_BIELERSEE
10
117.2041
20
18.7776
30
0.0
0
VERTEX
8
02_LAKE_BIELERSEE
10
117.0039
20
18.5970
30
0.0
0
VERTEX
8
02_LAKE_BIELERSEE
10
116.7618
20
18.4304
30
0.0
0
VERTEX
8
02_LAKE_BIELERSEE
10
116.4839
20
18.2839
30
0.0
0
VERTEX
8
02_LAKE_BIELERSEE
10
116.1761
20
18.1560
30
0.0
0
VERTEX
8
02_LAKE_BIELERSEE
10
115.8438
20
18.0488
30
0.0
0
VERTEX
8
02_LAKE_BIELERSEE
10
115.4917
20
17.9665
30
0.0
0
VERTEX
8
02_LAKE_BIELERSEE
10
115.1267
20
17.9077
30
0.0
0
VERTEX
8
02_LAKE_BIELERSEE
10
114.7513
20
17.8662
30
0.0
0
VERTEX
8
02_LAKE_BIELERSEE
10
114.3674
20
17.8416
30
0.0
0
VERTEX
8
02_LAKE_BIELERSEE
10
113.9798
20
17.8271
30
0.0
0
VERTEX
8
02_LAKE_BIELERSEE
10
113.5890
20
17.8196
30
0.0
0
VERTEX
8
02_LAKE_BIELERSEE
10
113.1955
20
17.8157
30
0.0
0
VERTEX
8
02_LAKE_BIELERSEE
10
112.8000
20
17.8107
30
0.0
0
VERTEX
8
02_LAKE_BIELERSEE
10
112.4000
20
17.7988
30
0.0
0
VERTEX
8
02_LAKE_BIELERSEE
10
112.0045
20
17.7750
30
0.0
0
VERTEX
8
02_LAKE_BIELERSEE
10
111.6110
20
17.7363
30
0.0
0
VERTEX
8
02_LAKE_BIELERSEE
10
111.2202
20
17.6823
30
0.0
0
VERTEX
8
02_LAKE_BIELERSEE
10
110.8326
20
17.6130
30
0.0
0
VERTEX
8
02_LAKE_BIELERSEE
10
110.4487
20
17.5251
30
0.0
0
VERTEX
8
02_LAKE_BIELERSEE
10
110.0688
20
17.4228
30
0.0
0
VERTEX
8
02_LAKE_BIELERSEE
10
109.6928
20
17.3083
30
0.0
0
VERTEX
8
02_LAKE_BIELERSEE
10
109.3205
20
17.1812
30
0.0
0
VERTEX
8
02_LAKE_BIELERSEE
10
108.9510
20
17.0490
30
0.0
0
VERTEX
8
02_LAKE_BIELERSEE
10
108.5835
20
16.9149
30
0.0
0
VERTEX
8
02_LAKE_BIELERSEE
10
108.2165
20
16.7823
30
0.0
0
VERTEX
8
02_LAKE_BIELERSEE
10
107.8490
20
16.6549
30
0.0
0
VERTEX
8
02_LAKE_BIELERSEE
10
107.4795
20
16.5311
30
0.0
0
VERTEX
8
02_LAKE_BIELERSEE
10
107.1072
20
16.4159
30
0.0
0
VERTEX
8
02_LAKE_BIELERSEE
10
106.7312
20
16.3134
30
0.0
0
VERTEX
8
02_LAKE_BIELERSEE
10
106.3513
20
16.2200
30
0.0
0
VERTEX
8
02_LAKE_BIELERSEE
10
105.9674
20
16.1356
30
0.0
0
VERTEX
8
02_LAKE_BIELERSEE
10
105.5798
20
16.0598
30
0.0
0
VERTEX
8
02_LAKE_BIELERSEE
10
105.1890
20
15.9915
30
0.0
0
VERTEX
8
02_LAKE_BIELERSEE
10
104.7955
20
15.9327
30
0.0
0
VERTEX
8
02_LAKE_BIELERSEE
10
104.4000
20
15.8816
30
0.0
0
VERTEX
8
02_LAKE_BIELERSEE
10
104.0000
20
15.8368
30
0.0
0
VERTEX
8
02_LAKE_BIELERSEE
10
103.6000
20
15.7945
30
0.0
0
VERTEX
8
02_LAKE_BIELERSEE
10
103.2000
20
15.7555
30
0.0
0
VERTEX
8
02_LAKE_BIELERSEE
10
102.8000
20
15.7250
30
0.0
0
VERTEX
8
02_LAKE_BIELERSEE
10
102.4000
20
15.7039
30
0.0
0
VERTEX
8
02_LAKE_BIELERSEE
10
102.0000
20
15.6890
30
0.0
0
VERTEX
8
02_LAKE_BIELERSEE
10
101.6000
20
15.6859
30
0.0
0
VERTEX
8
02_LAKE_BIELERSEE
10
101.2000
20
15.6924
30
0.0
0
VERTEX
8
02_LAKE_BIELERSEE
10
100.8000
20
15.7093
30
0.0
0
VERTEX
8
02_LAKE_BIELERSEE
10
100.4045
20
15.7410
30
0.0
0
VERTEX
8
02_LAKE_BIELERSEE
10
100.0110
20
15.7892
30
0.0
0
VERTEX
8
02_LAKE_BIELERSEE
10
99.6202
20
15.8556
30
0.0
0
SEQEND
8
02_LAKE_BIELERSEE
0
POLYLINE
8
02_LAKE_MORAT
66
1
70
1
0
VERTEX
8
02_LAKE_MORAT
10
76.8495
20
4.9172
30
0.0
0
VERTEX
8
02_LAKE_MORAT
10
76.5539
20
4.7668
30
0.0
0
VERTEX
8
02_LAKE_MORAT
10
76.2343
20
4.6527
30
0.0
0
VERTEX
8
02_LAKE_MORAT
10
75.8939
20
4.5693
30
0.0
0
VERTEX
8
02_LAKE_MORAT
10
75.5361
20
4.5133
30
0.0
0
VERTEX
8
02_LAKE_MORAT
10
75.1643
20
4.4809
30
0.0
0
VERTEX
8
02_LAKE_MORAT
10
74.7845
20
4.4684
30
0.0
0
VERTEX
8
02_LAKE_MORAT
10
74.3955
20
4.4719
30
0.0
0
VERTEX
8
02_LAKE_MORAT
10
74.0000
20
4.4926
30
0.0
0
VERTEX
8
02_LAKE_MORAT
10
73.6000
20
4.5294
30
0.0
0
VERTEX
8
02_LAKE_MORAT
10
73.2000
20
4.5778
30
0.0
0
VERTEX
8
02_LAKE_MORAT
10
72.8000
20
4.6363
30
0.0
0
VERTEX
8
02_LAKE_MORAT
10
72.4000
20
4.6979
30
0.0
0
VERTEX
8
02_LAKE_MORAT
10
72.0000
20
4.7665
30
0.0
0
VERTEX
8
02_LAKE_MORAT
10
71.6000
20
4.8412
30
0.0
0
VERTEX
8
02_LAKE_MORAT
10
71.2000
20
4.9205
30
0.0
0
VERTEX
8
02_LAKE_MORAT
10
70.8000
20
5.0027
30
0.0
0
VERTEX
8
02_LAKE_MORAT
10
70.4000
20
5.0902
30
0.0
0
VERTEX
8
02_LAKE_MORAT
10
70.0000
20
5.1784
30
0.0
0
VERTEX
8
02_LAKE_MORAT
10
69.6000
20
5.2700
30
0.0
0
VERTEX
8
02_LAKE_MORAT
10
69.2000
20
5.3611
30
0.0
0
VERTEX
8
02_LAKE_MORAT
10
68.8000
20
5.4512
30
0.0
0
VERTEX
8
02_LAKE_MORAT
10
68.4000
20
5.5443
30
0.0
0
VERTEX
8
02_LAKE_MORAT
10
68.0000
20
5.6395
30
0.0
0
VERTEX
8
02_LAKE_MORAT
10
67.6000
20
5.7436
30
0.0
0
VERTEX
8
02_LAKE_MORAT
10
67.2000
20
5.8594
30
0.0
0
VERTEX
8
02_LAKE_MORAT
10
66.8000
20
5.9898
30
0.0
0
VERTEX
8
02_LAKE_MORAT
10
66.4045
20
6.1380
30
0.0
0
VERTEX
8
02_LAKE_MORAT
10
66.0155
20
6.3067
30
0.0
0
VERTEX
8
02_LAKE_MORAT
10
65.6357
20
6.4953
30
0.0
0
VERTEX
8
02_LAKE_MORAT
10
65.2684
20
6.7064
30
0.0
0
VERTEX
8
02_LAKE_MORAT
10
64.9216
20
6.9444
30
0.0
0
VERTEX
8
02_LAKE_MORAT
10
64.5970
20
7.2087
30
0.0
0
VERTEX
8
02_LAKE_MORAT
10
64.2990
20
7.4978
30
0.0
0
VERTEX
8
02_LAKE_MORAT
10
64.0364
20
7.8098
30
0.0
0
VERTEX
8
02_LAKE_MORAT
10
63.8101
20
8.1423
30
0.0
0
VERTEX
8
02_LAKE_MORAT
10
63.6273
20
8.4924
30
0.0
0
VERTEX
8
02_LAKE_MORAT
10
63.4913
20
8.8529
30
0.0
0
VERTEX
8
02_LAKE_MORAT
10
63.4042
20
9.2157
30
0.0
0
VERTEX
8
02_LAKE_MORAT
10
63.3670
20
9.5753
30
0.0
0
VERTEX
8
02_LAKE_MORAT
10
63.3794
20
9.9251
30
0.0
0
VERTEX
8
02_LAKE_MORAT
10
63.4401
20
10.2627
30
0.0
0
VERTEX
8
02_LAKE_MORAT
10
63.5472
20
10.5814
30
0.0
0
VERTEX
8
02_LAKE_MORAT
10
63.6980
20
10.8725
30
0.0
0
VERTEX
8
02_LAKE_MORAT
10
63.8895
20
11.1319
30
0.0
0
VERTEX
8
02_LAKE_MORAT
10
64.1184
20
11.3569
30
0.0
0
VERTEX
8
02_LAKE_MORAT
10
64.3811
20
11.5413
30
0.0
0
VERTEX
8
02_LAKE_MORAT
10
64.6738
20
11.6877
30
0.0
0
VERTEX
8
02_LAKE_MORAT
10
64.9897
20
11.7971
30
0.0
0
VERTEX
8
02_LAKE_MORAT
10
65.3262
20
11.8720
30
0.0
0
VERTEX
8
02_LAKE_MORAT
10
65.6800
20
11.9163
30
0.0
0
VERTEX
8
02_LAKE_MORAT
10
66.0481
20
11.9345
30
0.0
0
VERTEX
8
02_LAKE_MORAT
10
66.4247
20
11.9316
30
0.0
0
VERTEX
8
02_LAKE_MORAT
10
66.8110
20
11.9081
30
0.0
0
VERTEX
8
02_LAKE_MORAT
10
67.2045
20
11.8712
30
0.0
0
VERTEX
8
02_LAKE_MORAT
10
67.6000
20
11.8200
30
0.0
0
VERTEX
8
02_LAKE_MORAT
10
68.0000
20
11.7600
30
0.0
0
VERTEX
8
02_LAKE_MORAT
10
68.4000
20
11.6886
30
0.0
0
VERTEX
8
02_LAKE_MORAT
10
68.8000
20
11.6125
30
0.0
0
VERTEX
8
02_LAKE_MORAT
10
69.2000
20
11.5310
30
0.0
0
VERTEX
8
02_LAKE_MORAT
10
69.6000
20
11.4424
30
0.0
0
VERTEX
8
02_LAKE_MORAT
10
70.0000
20
11.3406
30
0.0
0
VERTEX
8
02_LAKE_MORAT
10
70.4000
20
11.2286
30
0.0
0
VERTEX
8
02_LAKE_MORAT
10
70.8000
20
11.1069
30
0.0
0
VERTEX
8
02_LAKE_MORAT
10
71.2000
20
10.9767
30
0.0
0
VERTEX
8
02_LAKE_MORAT
10
71.6000
20
10.8353
30
0.0
0
VERTEX
8
02_LAKE_MORAT
10
72.0000
20
10.6877
30
0.0
0
VERTEX
8
02_LAKE_MORAT
10
72.4000
20
10.5347
30
0.0
0
VERTEX
8
02_LAKE_MORAT
10
72.8000
20
10.3774
30
0.0
0
VERTEX
8
02_LAKE_MORAT
10
73.2000
20
10.2185
30
0.0
0
VERTEX
8
02_LAKE_MORAT
10
73.6000
20
10.0604
30
0.0
0
VERTEX
8
02_LAKE_MORAT
10
74.0000
20
9.9054
30
0.0
0
VERTEX
8
02_LAKE_MORAT
10
74.4000
20
9.7557
30
0.0
0
VERTEX
8
02_LAKE_MORAT
10
74.8000
20
9.6131
30
0.0
0
VERTEX
8
02_LAKE_MORAT
10
75.1955
20
9.4779
30
0.0
0
VERTEX
8
02_LAKE_MORAT
10
75.5800
20
9.3455
30
0.0
0
VERTEX
8
02_LAKE_MORAT
10
75.9532
20
9.2177
30
0.0
0
VERTEX
8
02_LAKE_MORAT
10
76.3114
20
9.0884
30
0.0
0
VERTEX
8
02_LAKE_MORAT
10
76.6502
20
8.9580
30
0.0
0
VERTEX
8
02_LAKE_MORAT
10
76.9653
20
8.8189
30
0.0
0
VERTEX
8
02_LAKE_MORAT
10
77.2479
20
8.6673
30
0.0
0
VERTEX
8
02_LAKE_MORAT
10
77.4969
20
8.5022
30
0.0
0
VERTEX
8
02_LAKE_MORAT
10
77.7090
20
8.3187
30
0.0
0
VERTEX
8
02_LAKE_MORAT
10
77.8826
20
8.1099
30
0.0
0
VERTEX
8
02_LAKE_MORAT
10
78.0130
20
7.8744
30
0.0
0
VERTEX
8
02_LAKE_MORAT
10
78.0999
20
7.6118
30
0.0
0
VERTEX
8
02_LAKE_MORAT
10
78.1437
20
7.3347
30
0.0
0
VERTEX
8
02_LAKE_MORAT
10
78.1457
20
7.0406
30
0.0
0
VERTEX
8
02_LAKE_MORAT
10
78.1076
20
6.7388
30
0.0
0
VERTEX
8
02_LAKE_MORAT
10
78.0310
20
6.4326
30
0.0
0
VERTEX
8
02_LAKE_MORAT
10
77.9177
20
6.1301
30
0.0
0
VERTEX
8
02_LAKE_MORAT
10
77.7689
20
5.8393
30
0.0
0
VERTEX
8
02_LAKE_MORAT
10
77.5859
20
5.5671
30
0.0
0
VERTEX
8
02_LAKE_MORAT
10
77.3701
20
5.3197
30
0.0
0
VERTEX
8
02_LAKE_MORAT
10
77.1230
20
5.1013
30
0.0
0
SEQEND
8
02_LAKE_MORAT
0
CIRCLE
8
03_STONE_SAPPHIRE
10
65.4915
20
36.4684
30
0.0
40
3.5000
0
CIRCLE
8
03_STONE_AMETHYST_A
10
76.6282
20
17.4147
30
0.0
40
1.5000
0
CIRCLE
8
03_STONE_AMETHYST_B
10
38.0000
20
39.2668
30
0.0
40
1.5000
0
POLYLINE
8
04_SADDLE_SWALE
66
1
70
0
0
VERTEX
8
04_SADDLE_SWALE
10
45.6000
20
38.0000
30
0.0
0
VERTEX
8
04_SADDLE_SWALE
10
45.5596
20
39.1368
30
0.0
0
VERTEX
8
04_SADDLE_SWALE
10
45.4386
20
40.2675
30
0.0
0
VERTEX
8
04_SADDLE_SWALE
10
45.2368
20
41.3923
30
0.0
0
VERTEX
8
04_SADDLE_SWALE
10
44.9543
20
42.5110
30
0.0
0
VERTEX
8
04_SADDLE_SWALE
10
44.5911
20
43.6237
30
0.0
0
VERTEX
8
04_SADDLE_SWALE
10
44.1471
20
44.7304
30
0.0
0
VERTEX
8
04_SADDLE_SWALE
10
43.6225
20
45.8311
30
0.0
0
VERTEX
8
04_SADDLE_SWALE
10
43.0171
20
46.9258
30
0.0
0
VERTEX
8
04_SADDLE_SWALE
10
42.3311
20
48.0145
30
0.0
0
VERTEX
8
04_SADDLE_SWALE
10
41.5643
20
49.0972
30
0.0
0
VERTEX
8
04_SADDLE_SWALE
10
40.7168
20
50.1738
30
0.0
0
VERTEX
8
04_SADDLE_SWALE
10
39.7886
20
51.2445
30
0.0
0
VERTEX
8
04_SADDLE_SWALE
10
38.7796
20
52.3091
30
0.0
0
VERTEX
8
04_SADDLE_SWALE
10
37.6900
20
53.3677
30
0.0
0
VERTEX
8
04_SADDLE_SWALE
10
36.5196
20
54.4203
30
0.0
0
VERTEX
8
04_SADDLE_SWALE
10
35.2686
20
55.4669
30
0.0
0
VERTEX
8
04_SADDLE_SWALE
10
33.9368
20
56.5075
30
0.0
0
VERTEX
8
04_SADDLE_SWALE
10
32.5243
20
57.5421
30
0.0
0
VERTEX
8
04_SADDLE_SWALE
10
31.0311
20
58.5707
30
0.0
0
VERTEX
8
04_SADDLE_SWALE
10
29.4571
20
59.5932
30
0.0
0
VERTEX
8
04_SADDLE_SWALE
10
27.8025
20
60.6098
30
0.0
0
SEQEND
8
04_SADDLE_SWALE
0
ENDSEC
0
EOF
